<?xml version="1.0" standalone="no"?>
<!DOCTYPE svg PUBLIC "-//W3C//DTD SVG 1.1//EN" "http://www.w3.org/Graphics/SVG/1.1/DTD/svg11.dtd" >
<svg>
<metadata>
Created by FontForge 20090914 at Sun Jan 25 00:22:18 2015
 By www-data
Typeface &#194;&#169; (your company). 2014. All Rights Reserved
</metadata>
<defs>
<font id="HACKED" horiz-adv-x="1014" >
  <font-face 
    font-family="HACKED"
    font-weight="400"
    font-stretch="normal"
    units-per-em="2048"
    panose-1="2 0 5 0 0 0 0 0 0 0"
    ascent="1638"
    descent="-410"
    x-height="1430"
    cap-height="1433"
    bbox="-360 -418.003 2048 1716"
    underline-thickness="150"
    underline-position="-142"
    unicode-range="U+0020-U+F002"
  />
<missing-glyph horiz-adv-x="1024" 
d="M100 0v1434h824v-1434h-824zM150 50h724v1334h-724v-1334zM325 1148c20.667 18.667 40.002 32.998 58.002 42.998c35.333 20 72.666 30 111.999 30c61.333 0 110.666 -15.833 147.999 -47.5s56 -74.167 56 -127.5c0 -32.667 -7.66699 -65.5 -23 -98.5
s-44.333 -76.167 -87 -129.5c-42 -53.333 -75 -97.333 -99 -132s-36 -67.667 -36 -99c0 -25.333 8 -69.666 24 -132.999h-32c-23.333 64.667 -35 114 -35 148c0 50.667 27.167 123.334 81.5 218.001s81.5 167 81.5 217c0 38 -11 68 -33 90s-52.333 33 -91 33
c-25.333 0 -48.333 -5.66699 -69 -17c-17.333 -10 -36 -23.333 -56 -40v45zM389.002 333.998l57 57.999c7.33301 6.66699 14 10 20 10c6.66699 0 14 -3.66699 22 -11l56 -60c6 -7.33301 9 -14 9 -20c0 -7.33301 -3.33301 -14.666 -10 -21.999l-56 -62
c-9.33301 -9.33301 -16.333 -14 -21 -14c-7.33301 0 -14 3.33301 -20 10l-61 71c-4.66699 6 -7 12 -7 18c0 6.66699 3.66699 14 11 22z" />
    <glyph glyph-name=".notdef" horiz-adv-x="1024" 
d="M100 0v1434h824v-1434h-824zM150 50h724v1334h-724v-1334zM325 1148c20.667 18.667 40.002 32.998 58.002 42.998c35.333 20 72.666 30 111.999 30c61.333 0 110.666 -15.833 147.999 -47.5s56 -74.167 56 -127.5c0 -32.667 -7.66699 -65.5 -23 -98.5
s-44.333 -76.167 -87 -129.5c-42 -53.333 -75 -97.333 -99 -132s-36 -67.667 -36 -99c0 -25.333 8 -69.666 24 -132.999h-32c-23.333 64.667 -35 114 -35 148c0 50.667 27.167 123.334 81.5 218.001s81.5 167 81.5 217c0 38 -11 68 -33 90s-52.333 33 -91 33
c-25.333 0 -48.333 -5.66699 -69 -17c-17.333 -10 -36 -23.333 -56 -40v45zM389.002 333.998l57 57.999c7.33301 6.66699 14 10 20 10c6.66699 0 14 -3.66699 22 -11l56 -60c6 -7.33301 9 -14 9 -20c0 -7.33301 -3.33301 -14.666 -10 -21.999l-56 -62
c-9.33301 -9.33301 -16.333 -14 -21 -14c-7.33301 0 -14 3.33301 -20 10l-61 71c-4.66699 6 -7 12 -7 18c0 6.66699 3.66699 14 11 22z" />
    <glyph glyph-name="space" unicode=" " horiz-adv-x="508" 
 />
    <glyph glyph-name="space" unicode="&#xa0;" horiz-adv-x="508" 
 />
    <glyph glyph-name="exclam" unicode="!" horiz-adv-x="706" 
d="M193 1434h320c-26.667 -593.333 -40.667 -925 -42 -995l-2 -12h-234zM237 269h236v-264c0 -3.33301 -1.33301 -5 -4 -5h-232c-2.66699 0 -4 1.66699 -4 5v259c0 3.33301 1.33301 5 4 5z" />
    <glyph glyph-name="quotedbl" unicode="&#x22;" horiz-adv-x="672" 
d="M197 1108l-30 -0.000976562l-62 359c-2.66699 15.333 -4 26.333 -4 33c0 24.667 6.83301 43.667 20.5 57s33.5 20 59.5 20s46.167 -6.5 60.5 -19.5s21.5 -31.833 21.5 -56.5c0 -5.33301 -1.33301 -16.666 -4 -33.999zM509 1108l-30 -0.000976562l-62 359
c-2.66699 15.333 -4 26.333 -4 33c0 24.667 6.83301 43.667 20.5 57s33.5 20 59.5 20s46.167 -6.5 60.5 -19.5s21.5 -31.833 21.5 -56.5c0 -5.33301 -1.33301 -16.666 -4 -33.999z" />
    <glyph glyph-name="numbersign" unicode="#" horiz-adv-x="1012" 
d="M362 1432c140 -15.333 209.999 -24.667 209.999 -28c0 -4.66699 -25 -121.334 -75 -350.001h173l77 378c22.667 -2 94.667 -11.333 216 -28l-76 -350h106v-191h-146c-8 -42.667 -12 -66.667 -12 -72h125v-33h-133l-35 -195h138v-190h-173v-118h-52v-255h-155v423h-103
v-45h-103v-168h-57v-210h-158v283h48v120h-155c-2 78.667 -3 131.334 -3 158.001l5 2h155c6.66699 39.333 26.667 139.333 60 300h-152v191h192c46.667 224 73.334 350 80.001 378h3zM458.999 862.999c0 -6 -20 -106 -60 -300h171c0 3.33301 19 103.333 57 300h-168z
M731.999 790.999v-33h90c4.66699 0 8 11 10 33h-100z" />
    <glyph glyph-name="dollar" unicode="$" horiz-adv-x="845" 
d="M371 1431h157.998v-134c56.667 -9.33301 99.334 -25 128.001 -47c28 -24 47.667 -47 59 -69c30.667 -66 46 -128.667 46 -188h-2c-88.667 -7.33301 -149 -11 -181 -11c0 43.333 -13.333 79.666 -40 108.999c-24.667 14 -47.667 21 -69 21h-32c-56 0 -90 -21.667 -102 -65
c-2.66699 -12 -4 -21.667 -4 -29v-17c0 -60.667 32 -104.667 96 -132c5.33301 -4.66699 50 -25 134 -61c44.667 -20.667 86 -46 124 -76v-2h-205v-23h270v-33h34v-353h-67v-182h-189v-139h-158v139h-170v182h-123v122h69v42h-69v29h237v-193h243v290h-182v96h-225v23h109v2
c-95.333 63.333 -143 153 -143 269v15c0 130.667 52 217.334 156 260.001c46.667 14 79.334 21 98.001 21v134zM750.998 730h82v-23h-82v23zM-0.00195312 485h78v-42h-78v42z" />
    <glyph glyph-name="percent" unicode="%" horiz-adv-x="1610" 
d="M449 1459c65.333 0 128.833 -16.333 190.5 -49s109.834 -79.167 144.501 -139.5s52 -123.833 52 -190.5c0 -66 -16.833 -128.833 -50.5 -188.5s-81.334 -106.334 -143.001 -140.001s-126.167 -50.5 -193.5 -50.5c-66.667 0 -130.834 16.833 -192.501 50.5
s-109.5 80.334 -143.5 140.001s-51 122.5 -51 188.5c0 66.667 17.333 130.167 52 190.5s82.834 106.833 144.501 139.5s125.167 49 190.5 49zM206 1066c8.66699 -61.333 27.168 -119.165 55.501 -173.498s63.833 -95.833 106.5 -124.5c38 -26.667 76 -40 114 -40
c4.66699 0 9 0.333008 13 1c42 2 80.333 19.667 115 53s59 78.666 73 135.999c8.66699 36 13 73 13 111c0 21.333 -1.33301 43 -4 65c-8 62 -26.667 120.5 -56 175.5s-65 96.5 -107 124.5c-38.667 25.333 -77 38 -115 38h-11c-40.667 -2 -78.334 -19.333 -113.001 -52
s-59 -77.667 -73 -135c-10 -38.667 -15 -77.667 -15 -117c0 -20.667 1.33301 -41.334 4 -62.001zM297.001 -28.999l940 1461h84l-938 -1461h-86zM1161 738.001c64.667 0 127.999 -16.5 189.999 -49.5s110.333 -79.667 145 -140s52 -123.5 52 -189.5
c0 -66.667 -16.833 -129.834 -50.5 -189.501s-81.334 -106.167 -143.001 -139.5s-126.167 -50 -193.5 -50s-131.666 16.667 -192.999 50s-109 79.833 -143 139.5s-51 122.834 -51 189.501c0 66 17.333 129.167 52 189.5s82.834 107 144.501 140s125.167 49.5 190.5 49.5z
M918 344.001c8.66699 -61.333 27.168 -119.165 55.501 -173.498s63.833 -95.833 106.5 -124.5c39.333 -26 78 -39 116 -39h11c42 2 80.333 19.667 115 53s59 78.666 73 135.999c8.66699 36 13 73 13 111c0 21.333 -1.33301 43 -4 65c-8 62 -26.667 120.5 -56 175.5
s-65 96.5 -107 124.5c-38.667 25.333 -77 38 -115 38h-11c-40.667 -2 -78.334 -19.333 -113.001 -52s-59 -77.667 -73 -135c-10 -38.667 -15 -77.667 -15 -117c0 -20.667 1.33301 -41.334 4 -62.001z" />
    <glyph glyph-name="ampersand" unicode="&#x26;" horiz-adv-x="1683" 
d="M1051 196l-554 682.998c-78.667 0 -138.5 -28.667 -179.5 -86s-61.5 -125.333 -61.5 -204c0 -60.667 11.833 -121.167 35.5 -181.5s57.5 -115.166 101.5 -164.499c48 -55.333 103 -97.666 165 -126.999s126.667 -44 194 -44c58.667 0 115 11.167 169 33.5
s97.333 52.5 130 90.5zM1394 -0.00195312c-37.333 0 -83.666 8.33398 -138.999 25.001s-111 60.667 -167 132c-44.667 -49.333 -103 -90.5 -175 -123.5s-152.333 -49.5 -241 -49.5c-152.667 0 -277.5 50.167 -374.5 150.5s-145.5 228.833 -145.5 385.5
c0 107.333 25.333 196.166 76 266.499s125.667 120.833 225 151.5c-28 40.667 -48.833 79.334 -62.5 116.001s-20.5 73.667 -20.5 111c0 70 25.667 135.667 77 197s112 92 182 92c45.333 0 92.666 -13 141.999 -39c6 -4 12 -6 18 -6c15.333 0 28 15 38 45h46l96 -281h-46
c-36.667 88.667 -88.334 148 -155.001 178c-56.667 24.667 -103.667 37 -141 37c-43.333 0 -78.666 -15.167 -105.999 -45.5s-41 -69.5 -41 -117.5c0 -87.333 34 -176.333 102 -267l531 -670c65.333 97.333 105.666 178.666 120.999 243.999c11.333 52 17 95.333 17 130
c0 64.667 -20.667 97 -62 97h-90v50h443v-50h-90c-63.333 0 -111.666 -75.667 -144.999 -227c-20.667 -88 -72.334 -185.333 -155.001 -292c72.667 -90.667 155.334 -136 248.001 -136h16c95.333 11.333 159.333 54 192 128l49 -1l-103 -231h-160z" />
    <glyph glyph-name="quotesingle" unicode="'" horiz-adv-x="346" 
d="M197 1108l-30 -0.000976562l-62 359c-2.66699 15.333 -4 26.333 -4 33c0 24.667 6.83301 43.667 20.5 57s33.5 20 59.5 20s46.167 -6.5 60.5 -19.5s21.5 -31.833 21.5 -56.5c0 -5.33301 -1.33301 -16.666 -4 -33.999z" />
    <glyph glyph-name="parenleft" unicode="(" horiz-adv-x="758" 
d="M252 601c1.33301 184.667 34.5 361.333 99.5 530s154.5 316 268.5 442h80c-114.667 -161.333 -191.334 -307.333 -230.001 -438c-38 -128.667 -57 -303 -57 -523v-22c0 -220 19 -394 57 -522c38.667 -130.667 115.334 -276.667 230.001 -438h-80
c-114 126 -203.5 273.167 -268.5 441.5s-98.167 344.833 -99.5 529.5z" />
    <glyph glyph-name="parenright" unicode=")" horiz-adv-x="758" 
d="M138 -370l-80 0.000976562c114.667 161.333 191.334 307.333 230.001 438c38 128 57 302 57 522v22c0 220 -19 394.333 -57 523c-38.667 130.667 -115.334 276.667 -230.001 438h80c114 -126 203.5 -273.333 268.5 -442s98.167 -345.334 99.5 -530.001
c-1.33301 -184.667 -34.5 -361.167 -99.5 -529.5s-154.5 -315.5 -268.5 -441.5z" />
    <glyph glyph-name="asterisk" unicode="*" horiz-adv-x="1024" 
d="M498 1294c-2.66699 47.333 -14.9971 90.667 -36.9971 130c-24.667 44 -37 72 -37 84c0 21.333 7.83301 38.5 23.5 51.5s36.5 19.5 62.5 19.5c24.667 0 45.167 -6 61.5 -18s24.5 -27.667 24.5 -47c0 -14 -12 -43.667 -36 -89c-22 -40.667 -34.333 -84 -37 -130
c44 16.667 81.667 41.667 113 75c34 36.667 57 57 69 61c7.33301 2 14.333 3 21 3c12 0 23.667 -3.33301 35 -10c17.333 -11.333 30 -29 38 -53c4 -12.667 6 -24.667 6 -36c0 -10 -1.33301 -19.333 -4 -28c-6.66699 -20 -19.334 -32.667 -38.001 -38
c-4 -1.33301 -10.333 -2 -19 -2c-16.667 0 -42 3 -76 9c-18.667 3.33301 -37 5 -55 5c-27.333 0 -54.333 -3.66699 -81 -11c29.333 -36.667 64.333 -64.334 105 -83.001c45.333 -21.333 71.666 -37 78.999 -47c8.66699 -12 13 -24.667 13 -38c0 -6 -0.666992 -11.667 -2 -17
c-5.33301 -20 -18.333 -37.667 -39 -53c-19.333 -14.667 -39 -22 -59 -22c-0.666992 0 -1 0.333008 -1 1c-20.667 0 -36.667 7.66699 -48 23c-8 11.333 -15.333 42.666 -22 93.999c-6.66699 44.667 -22.334 86.334 -47.001 125.001
c-25.333 -38.667 -40.666 -80 -45.999 -124c-6 -50 -12.667 -80 -20 -90c-12.667 -16.667 -29 -25.667 -49 -27h-5c-18.667 0 -37.667 7 -57 21c-20 14 -33 31 -39 51c-2.66699 6.66699 -4 13.334 -4 20.001c0 11.333 3.66699 22 11 32
c8.66699 11.333 36.334 28.333 83.001 51c40.667 19.333 75.667 46.666 105 81.999c-27.333 7.33301 -54 11 -80 11c-18 0 -35.667 -1.66699 -53 -5c-36 -7.33301 -62 -11 -78 -11c-6 0 -10.667 0.666992 -14 2c-20 6 -33.667 18.667 -41 38c-4 8.66699 -6 18.334 -6 29.001
c0 11.333 2 23.333 6 36c7.33301 23.333 19.333 41 36 53c11.333 8 22.666 12 33.999 12c6 0 12 -1 18 -3c13.333 -4 38 -24.667 74 -62c31.333 -32.667 68.666 -57.667 111.999 -75z" />
    <glyph glyph-name="plus" unicode="+" 
d="M437 647h-350v140h350v369l1 1h139v-370h349l1 -1v-139h-350v-370h-140v370z" />
    <glyph glyph-name="comma" unicode="," horiz-adv-x="557" 
d="M238 258c29.333 0 58.832 -21.833 88.499 -65.5s44.5 -94.167 44.5 -151.5c0 -72.667 -23.667 -148.167 -71 -226.5s-93.666 -117.5 -138.999 -117.5v43c48.667 28.667 77.667 92 87 190c0 79.333 -43 133 -129 161v42z" />
    <glyph glyph-name="hyphen" unicode="-" horiz-adv-x="670" 
d="M156 409c-26.667 0 -40 9.33301 -40 28v83c0 19.333 13.667 29 41 29h356c27.333 0 41 -9.66699 41 -29v-83c0 -18.667 -13.333 -28 -40 -28h-358z" />
    <glyph glyph-name="hyphen" unicode="&#xad;" horiz-adv-x="670" 
d="M156 409c-26.667 0 -40 9.33301 -40 28v83c0 19.333 13.667 29 41 29h356c27.333 0 41 -9.66699 41 -29v-83c0 -18.667 -13.333 -28 -40 -28h-358z" />
    <glyph glyph-name="period" unicode="." horiz-adv-x="498" 
d="M152 226h198c2.66699 -0.666992 4 -2 4 -4v-218c0 -2.66699 -1.33301 -4 -4 -4h-194c-2.66699 -0 -4 1.33301 -4 4v222z" />
    <glyph glyph-name="slash" unicode="/" horiz-adv-x="569" 
d="M93 -50h-80l541 1484h80z" />
    <glyph glyph-name="zero" unicode="0" horiz-adv-x="1003" 
d="M472 1432c193.333 0 318.666 -54 375.999 -162c33.333 -66 50 -115 50 -147c13.333 -47.333 20 -156 20 -326v-40h-137v-27h137v27h159v-27h-157c0 -138.667 -5 -294 -15 -466v-92h-127v-172h-593v97h-119v443h82v38h-127v137c0 296 25 480.333 75 553
c29.333 60 80 104.667 152 134c64.667 20 139.334 30 224.001 30zM310 501v-30h42v-209h170v19h127v354h-23c0 236.667 -7.33301 377 -22 421c-22.667 84.667 -64.334 127 -125.001 127h-22c-69.333 0 -112.666 -49 -129.999 -147c-11.333 -38.667 -17 -217 -17 -535z" />
    <glyph glyph-name="one" unicode="1" horiz-adv-x="694" 
d="M412 1434h174.999v-595h-74v-26h74v-365h-64v-26h105v-422h-172v19h-147v127h24v276h-24v196h60v36h-60v418c-116 -51.333 -181.333 -77 -196 -77c-40 114 -65.667 188.333 -77 223h2c116.667 38.667 241.334 110.667 374.001 216zM586.999 839h149v-26h-149v26z" />
    <glyph glyph-name="two" unicode="2" horiz-adv-x="864" 
d="M442 1431c175.333 0 286 -57 332 -171c25.333 -64 38 -145.333 38 -244c0 -170 -80.667 -334 -242 -492h162v-16h-171l5 16h-96v-16h91v-84h-129v-75h52v-103h344v-223h-344v-23h-445v227h84v244h78v192h58v21h134c52.667 58 87 104 103 138c34 55.333 51 119.333 51 192
c0 88 -14 143.333 -42 166c-20 10.667 -40.333 16 -61 16h-28c-60.667 0 -100.334 -39 -119.001 -117c-10 -42 -15 -82.333 -15 -121c-1.33301 0 -2 -1 -2 -3c-149.333 12.667 -229.666 19 -240.999 19c0 109.333 18 207 54 293c16.667 32 44 64.667 82 98
c63.333 44 152.333 66 267 66zM378 663h127v21h-105c-2 0 -9.33301 -7 -22 -21z" />
    <glyph glyph-name="three" unicode="3" horiz-adv-x="976" 
d="M449 1430c168 0 275.999 -48.668 323.999 -146.001c32 -58.667 48 -138 48 -238v-43c0 -94.667 -20 -163 -60 -205v-93c23.333 -22.667 45 -49.667 65 -81h33v-276h-131v-36h131v-214h-98v-65h-176v-33h-324v33h-119v86h-112v119h76v22h-76v105h253v-143h259v355h67v21
h-269v126h-31c0 11.333 1.66699 50.333 5 117h107c70.667 0 112 21.333 124 64c9.33301 22 14 50.667 14 86v48c0 75.333 -16.667 122 -50 140c-15.333 8 -32 12 -50 12h-26c-64 0 -104.667 -34 -122 -102c-6 -22 -10 -47.333 -12 -76l-236 12v2
c0 138.667 32 243.334 96 314.001c58.667 59.333 155.334 89 290.001 89zM858.999 347.999h176v-36h-176v36z" />
    <glyph glyph-name="four" unicode="4" horiz-adv-x="920" 
d="M777 1431v-845.997c0 -14 -0.666992 -34.333 -2 -61h103v-204h-127v-34h45v-284c-24 -1.33301 -41.667 -2 -53 -2h-197v277h-209v-24h-308c-3.33301 0 -5 1.33301 -5 4v51h115v31h-115v96c6 17.333 71.667 157.666 197 420.999h-166v32h183
c-9.33301 -18.667 -14 -29.334 -14 -32.001h221c3.33301 0 9 10.667 17 32h-224v2c0 1.33301 86 181.666 258 540.999h281zM496 955.003c0 -4.66699 -10.667 -27 -32 -67h34v67h-2zM500 888.003v-32h82v32h-82zM274 496.003h270v28h-46v332h-46
c-3.33301 0 -32 -57.667 -86 -173z" />
    <glyph glyph-name="five" unicode="5" horiz-adv-x="929" 
d="M132 1437l709.999 -0.000976562c0 -1.33301 -0.666992 -4.66602 -2 -9.99902c0 -18.667 -5 -97.667 -15 -237h-463c-2 -12.667 -8.33301 -112 -19 -298c49.333 28.667 120 43 212 43c134.667 0 223.334 -40 266.001 -120c38 -64 57 -179.333 57 -346h-50v-249h-81v-38h81
v-182h-203v17h-445v114h-141v204h253v-63h273v232h72v27h-72v122h-289c-3.33301 0 -66.333 26 -189 78c28.667 443.333 43 676 43 698c1.33301 3.33301 2 6 2 8z" />
    <glyph glyph-name="six" unicode="6" horiz-adv-x="941" 
d="M511 1434c179.333 0 295.002 -59.666 347.002 -178.999c23.333 -70.667 35 -132 35 -184l-219 -44l-2 4v3c0 72 -26 124 -78 156c-24.667 9.33301 -47.667 14 -69 14h-30c-62.667 0 -103.334 -36 -122.001 -108c-12.667 -49.333 -19 -127 -19 -233v-34
c61.333 55.333 143.666 83 246.999 83h32c131.333 0 218 -62.333 260 -187v-414h-94v-28h94v-103h-25v-67h-155v-78h-442v108h-147v368h94v35h-94v-35h-168v35h140c0 22 -0.666992 71 -2 147c0 303.333 20.667 486.666 62 549.999c28.667 67.333 78 118 148 152
c58.667 26 127.667 39 207 39zM363.002 553.001v-286h258v69h33v242h-65v115h-2c-34.667 0 -60.667 1.66699 -78 5c-68 0 -111 -23 -129 -69c-11.333 -24 -17 -49.333 -17 -76zM368.002 16.001h318v-16h-318v16z" />
    <glyph glyph-name="seven" unicode="7" horiz-adv-x="863" 
d="M42 1433h768.001v-175c0 -3.33301 -16 -37.333 -48 -102c-48.667 -113.333 -95.667 -249.666 -141 -408.999h114v-39h-119v10l2 29h-94v-39h92v-165h-63v-204h-78v-339h-336v56h53v419h70v250h66c54 150 119.333 302 196 456c1.33301 0 3.66602 4 6.99902 12h-499l-5 2
c1.33301 3.33301 2 5.66602 2 6.99902c0 16.667 4.33301 93.667 13 231z" />
    <glyph glyph-name="eight" unicode="8" horiz-adv-x="981" 
d="M464 1434c254 0 381 -119 381 -357v-21c0 -102 -25 -186 -75 -252v-115h61v-461h-68v-35h68v-132h-146v-61h-583v411h59v31h-84l-24 -2v225h33c28.667 47.333 67 79.666 115 96.999v2c-77.333 40.667 -118 132.334 -122 275.001c0 174 46.333 287.667 139 341
c58.667 36 140.667 54 246 54zM345 1079c0 -115.333 17 -184.333 51 -207c19.333 -12.667 43 -22 71 -28c24.667 4 49 14.333 73 31c31.333 24.667 47 81.667 47 171v50c0 76.667 -35.333 115 -106 115h-19c-78 0 -117 -44 -117 -132zM831 738h153v-49h-153v49zM335 654
v-111h-35v-294h143v33h144v372h-252z" />
    <glyph glyph-name="nine" unicode="9" horiz-adv-x="1027" 
d="M542 1435c185.333 0 303.667 -60.333 355 -181c35.333 -62 53 -197.333 53 -406h26v-525h-58v-232h-179v-52h-509v138h-90v188h227c7.33301 -36 20 -63.333 38 -82c31.333 -29.333 75.333 -44 132 -44c54.667 0 93.334 27.333 116.001 82v204h-241
c-116.667 0 -197.334 52.667 -242.001 158c-10.667 26.667 -20 63 -28 109h112v40h-117c-2.66699 37.333 -4 72 -4 104c0 202 26.333 330.667 79 386c57.333 75.333 167.333 113 330 113zM407.001 964v-26.001c0 -92 17.667 -150.667 53 -176c27.333 -14 55.333 -21 84 -21
c57.333 0 96.666 24 117.999 72c9.33301 20.667 14 38.334 14 53.001v121c0 111.333 -18.333 177.333 -55 198c-21.333 10.667 -48.666 16 -81.999 16c-62.667 0 -102 -31.667 -118 -95c-9.33301 -42 -14 -89.333 -14 -142zM-52.999 831.999h190
c3.33301 -18 5 -31.333 5 -40h-195v40zM316.001 20.999h363v-21h-363v21z" />
    <glyph glyph-name="colon" unicode=":" horiz-adv-x="557" 
d="M145 167l82.001 84c10 9.33301 19.667 14 29 14c8.66699 0 19 -5.33301 31 -16l80 -86c8 -10.667 12 -20.334 12 -29.001c0 -10 -4.66699 -20.333 -14 -31l-80 -88c-13.333 -13.333 -23 -20 -29 -20c-10.667 0 -20.334 4.66699 -29.001 14l-88 101
c-6.66699 8.66699 -10 17.334 -10 26.001c0 10 5.33301 20.333 16 31zM145.001 860l82.001 84c10 9.33301 19.667 14 29 14c8.66699 0 19 -5.33301 31 -16l80 -86c8 -10.667 12 -20.334 12 -29.001c0 -10 -4.66699 -20.333 -14 -31l-80 -88c-13.333 -13.333 -23 -20 -29 -20
c-10.667 0 -20.334 4.66699 -29.001 14l-88 101c-6.66699 8.66699 -10 17.334 -10 26.001c0 10 5.33301 20.333 16 31z" />
    <glyph glyph-name="semicolon" unicode=";" horiz-adv-x="557" 
d="M145 859l82.001 84c10 9.33301 19.667 14 29 14c8.66699 0 19 -5.33301 31 -16l80 -86c8 -10.667 12 -20.334 12 -29.001c0 -10 -4.66699 -20.333 -14 -31l-80 -88c-13.333 -13.333 -23 -20 -29 -20c-10.667 0 -20.334 4.66699 -29.001 14l-88 101
c-6.66699 8.66699 -10 17.334 -10 26.001c0 10 5.33301 20.333 16 31zM238.001 258c29.333 0 58.832 -21.833 88.499 -65.5s44.5 -94.167 44.5 -151.5c0 -72.667 -23.667 -148.167 -71 -226.5s-93.666 -117.5 -138.999 -117.5v43c48.667 28.667 77.667 92 87 190
c0 79.333 -43 133 -129 161v42z" />
    <glyph glyph-name="semicolon" unicode="&#x37e;" horiz-adv-x="557" 
d="M145 859l82.001 84c10 9.33301 19.667 14 29 14c8.66699 0 19 -5.33301 31 -16l80 -86c8 -10.667 12 -20.334 12 -29.001c0 -10 -4.66699 -20.333 -14 -31l-80 -88c-13.333 -13.333 -23 -20 -29 -20c-10.667 0 -20.334 4.66699 -29.001 14l-88 101
c-6.66699 8.66699 -10 17.334 -10 26.001c0 10 5.33301 20.333 16 31zM238.001 258c29.333 0 58.832 -21.833 88.499 -65.5s44.5 -94.167 44.5 -151.5c0 -72.667 -23.667 -148.167 -71 -226.5s-93.666 -117.5 -138.999 -117.5v43c48.667 28.667 77.667 92 87 190
c0 79.333 -43 133 -129 161v42z" />
    <glyph glyph-name="less" unicode="&#x3c;" 
d="M927 1074l-625 -359l625 -355v-167l-840 481v83l840 484v-167z" />
    <glyph glyph-name="equal" unicode="=" 
d="M87 631h840v-140h-840v140zM87 943h840v-140h-840v140z" />
    <glyph glyph-name="greater" unicode="&#x3e;" 
d="M87 1241l840 -484v-83l-840 -481v167l625 355l-625 359v167z" />
    <glyph glyph-name="question" unicode="?" horiz-adv-x="807" 
d="M407 1437l29.999 0.000976562c182 0 293.667 -58.667 335 -176c15.333 -44 23 -92 23 -144v-26c0 -124.667 -65 -242.334 -195 -353.001c0 -1.33301 -19.333 -23 -58 -65c-36 -48 -54 -96 -54 -144c0 -24.667 11.667 -68.667 35 -132h-241c-28 44 -42 95 -42 153
c0 92 29.333 172.667 88 242c19.333 25.333 66 79.333 140 162c38.667 42.667 58 90 58 142v9c0 52 -16.333 83 -49 93c-15.333 6.66699 -37 10 -65 10c-96 0 -144 -62 -144 -186c-10 0 -91.333 6 -244 18c2 78 19 157 51 237c56.667 106.667 167.334 160 332.001 160z
M292.999 267.001h233v-267h-233c-2.66699 0 -4 1.66699 -4 5v257c0 3.33301 1.33301 5 4 5z" />
    <glyph glyph-name="at" unicode="@" horiz-adv-x="1436" 
d="M747 1433l23 -0.00195312c208 0 378 -77.333 510 -232c79.333 -99.333 119 -221 119 -365c0 -189.333 -78.333 -348.666 -235 -477.999c-63.333 -48 -127.333 -72 -192 -72h-5c-57.333 0 -95.333 26.333 -114 79c-1.33301 11.333 -2 20.333 -2 27v15
c-66.667 -80.667 -157 -121 -271 -121c-110.667 0 -193 57.667 -247 173c-13.333 34.667 -20 70.667 -20 108v18c0 148 61 292.667 183 434c84 83.333 175.333 125 274 125h27c80 0 151.333 -31 214 -93c23.333 -30 36.666 -54 39.999 -72h2c0 3.33301 16.667 47 50 131
l17 -3h24c-141.333 -369.333 -221 -579.666 -239 -630.999c-8 -32.667 -12 -58 -12 -76c0 -48 26.333 -72 79 -72h2c116 0 224.667 85.667 326 257c38 79.333 57 164 57 254c0 236 -115.333 406 -346 510c-80 28 -160.333 42 -241 42h-23c-219.333 0 -399.333 -92 -540 -276
c-82 -112 -123 -244.333 -123 -397c0 -308 134.667 -517.667 404 -629c80 -31.333 169 -47 267 -47c208 0 387 88 537 264c24.667 32.667 38 49 40 49h44c-82 -143.333 -218.333 -251 -409 -323c-71.333 -21.333 -142 -32 -212 -32c-234.667 0 -428.667 89.667 -582 269
c-87.333 120 -131 272 -131 456c0 269.333 122.333 477.333 367 624c106.667 56 219.334 84 338.001 84zM355 581.998v-20c0 -84.667 37 -152 111 -202c34.667 -21.333 76 -32 124 -32c158.667 0 268 102 328 306c75.333 190 113 288.667 113 296
c-16 56.667 -42.333 97 -79 121c-50.667 34 -105 51 -163 51h-29c-153.333 0 -278.333 -115 -375 -345c-20 -62.667 -30 -121 -30 -175z" />
    <glyph glyph-name="A" unicode="A" horiz-adv-x="1038" 
d="M452 1432h241.001c3.33301 -14 81.666 -274.667 234.999 -782h43v-471h-99v-37h99v-101h-266v290h-326v-123h-132v-208h-242v14h19v194h99v401h82zM565.001 1029v-3.00098c-20.667 -113.333 -60.667 -292.666 -120 -537.999h224v162h-19c-53.333 232 -80 358.333 -80 379
h-5zM138.001 680.999h22c0 -6 3 -11 9 -15c0.666992 6 4 11 10 15h17v-2c-11.333 -16 -17 -25 -17 -27c2.66699 -6 9 -15.667 19 -29v-5h-9c-9.33301 0 -16 6.66699 -20 20c-10 -13.333 -15.667 -20 -17 -20h-12c-3.33301 0 -5 1.66699 -5 5c2 0 8.66699 9 20 27v4
c-11.333 16.667 -17 25.667 -17 27zM-64.999 651.999h188v-43h-188v43zM978.001 620.999l51 0.000976562v-12l-31 -39h29c2.66699 -0.666992 4 -2.33398 4 -5.00098v-5c0 -3.33301 -1.33301 -5 -4 -5h-51v12l31 39h-29v15zM609.001 558l13.999 0.000976562v-24l27 24h14v-3
l-21 -24c16 -22.667 24 -35.334 24 -38.001h-15c-1.33301 0 -8.66602 8.66699 -21.999 26c-2 0 -4.33301 -2.33301 -7 -7v-19h-14v65zM983 536.001h28.998c14.667 -2 22 -9.33301 22 -22l-7 -12c4.66699 -5.33301 7 -15 7 -29v-2h-15c-1.33301 16 -3.66602 24 -6.99902 24
h-17v-24h-12c-3.33301 0 -5 1.66699 -5 5v55c0.666992 3.33301 2.33398 5 5.00098 5zM994.998 522.001v-15h17c3.33301 0 5 1.66699 5 5v10h-22zM977.998 452.001l45.999 0.000976562c3.33301 -0.666992 5 -2.33398 5 -5.00098v-5c0 -3.33301 -1.66699 -5 -5 -5h-14v-51h-17
v51h-15c-3.33301 0 -5 1.66699 -5 5v5c0.666992 3.33301 2.33398 5 5.00098 5zM972.997 367.002h12c4.66699 0 9.66699 -13.667 15 -41h2c8 24 12 37.667 12 41h17c-12.667 -43.333 -20.667 -65 -24 -65h-14zM451.997 312.002v-13c0 -2.66699 -13 -8 -39 -16v-3l39 -14v-15
l-61 22v17zM76.9971 283.002h7.99902c5.33301 0 14 -22 26 -66h-14c0 1.33301 -1.66699 6.33301 -5 15h-22c-1.33301 -10 -3.66602 -15 -6.99902 -15h-12c14 44 22.667 66 26 66zM1005 283.002h7c16 0 25.667 -11.333 29 -34c-4.66699 -22.667 -15 -34 -31 -34
c-22.667 4 -34 15.333 -34 34c3.33301 22.667 13 34 29 34zM992.996 251.002v-2.00098c0 -8.66699 4 -15.334 12 -20.001h7c8 4.66699 12 11.334 12 20.001v2c-1.33301 12.667 -7 19 -17 19c-9.33301 -3.33301 -14 -9.66602 -14 -18.999zM79.9961 261.001
c-3.33301 -10.667 -5 -16.333 -5 -17h12l-5 17h-2zM704.996 24.002h322v-24h-322v24z" />
    <glyph glyph-name="B" unicode="B" horiz-adv-x="991" 
d="M54 1433l406.999 -0.000976562c180.667 0 295.667 -45.667 345 -137c28 -48 42 -113.333 42 -196v-100c0 -94 -41 -170 -123 -228c28 -4.66699 63.333 -26 106 -64h31c40.667 -41.333 67 -81.333 79 -120c3.33301 -13.333 5 -20.666 5 -21.999h39v-24h-130v24h-267v76
h-262v-417h164v30h98v287h267v-253h30v-159h-89v-37h89v-66h-339v-27h-370v27h-80v220h110v59h-110c-2 112 -3 195.333 -3 250v106h-93v27h93v56h-44v683c0.666992 3.33301 2.33398 5 5.00098 5zM330.999 1191l-0.000976562 -354.999h61c72 0 119.333 12 142 36
c22.667 19.333 34 71.666 34 156.999v5c0 73.333 -11.333 117.333 -34 132c-15.333 16.667 -67.666 25 -156.999 25h-46zM95.998 689v-27h132v27h-132zM41.998 657l49 0.000976562v-10c0 -3.33301 -1.66699 -5 -5 -5h-30v-10h27c3.33301 -0.666992 5 -2.33398 5 -5.00098v-5
c0 -3.33301 -1.66699 -5 -5 -5h-27v-12h35v-10c0 -2.66699 -1.66699 -4 -5 -4h-44v66zM452.998 566.001h135v-24h-135v24zM893.998 537.001l7.99805 0.000976562c3.33301 -0.666992 5 -2.33398 5 -5.00098v-42c-2.66699 -14.667 -10 -22 -22 -22
c-15.333 2.66699 -23 10 -23 22v3c0.666992 2.66699 2.33398 4 5.00098 4h5c3.33301 0 6 -4.66699 8 -14h9v49c0.666992 3.33301 2.33398 5 5.00098 5zM871.996 451.002l19.999 0.000976562c22.667 0 34 -12.333 34 -37c0 -16.667 -10.667 -26.334 -32 -29.001h-27v61
c0.666992 3.33301 2.33398 5 5.00098 5zM884.995 436.003v-37h9c10 0 15 5 15 15v5c0 11.333 -5.66699 17 -17 17h-7zM871.995 365.003l36.999 0.000976562c3.33301 -0.666992 5 -2.33398 5 -5.00098v-10h-29v-12h24v-12h-24v-22c0 -3.33301 -1.66699 -5 -5 -5h-13v61
c0.666992 3.33301 2.33398 5 5.00098 5zM528.994 326.004h52v-12l-32 -40h34v-9c0 -3.33301 -1.66699 -5 -5 -5h-46c-3.33301 0 -5 1.66699 -5 5v7l32 39h-25c-3.33301 0 -5 1.66699 -5 5v10zM332.994 284.004l2.99902 -0.000976562c30.667 -9.33301 46 -15.666 46 -18.999
v-5c-3.33301 -4.66699 -18.666 -12 -45.999 -22l-3 5v2c0 4.66699 10 9.66699 30 15c0 3.33301 -10 8 -30 14v10z" />
    <glyph glyph-name="C" unicode="C" horiz-adv-x="1059" 
d="M559 1433c200 0 326.001 -62.333 378.001 -187c14.667 -30.667 22 -51 22 -61h-126v-38h135v2c0 6.66699 -3 18.667 -9 36h231v-38h-219v-3c11.333 -53.333 19.333 -111 24 -173c0 -3.33301 -87.667 -9.66602 -263 -18.999v2c0 159.333 -54.667 239 -164 239h-28
c-82 0 -132 -34.667 -150 -104c-14.667 -58.667 -22 -135.667 -22 -231v-195l-2 -29h-91v-46h91v-347h386v361h221v-361h-123v-222h-257v-19h-200v19h-203v111h135v48h-202v164h-87v202h46c-2 84 -3 150 -3 198c0 218 10.667 355.333 32 412
c19.333 65.333 51.333 121.666 96 168.999c79.333 73.333 196.666 110 351.999 110zM385.001 313h12v-50h29v-15h-41c-2.66699 0 -4 1.66699 -4 5v55c0 3.33301 1.33301 5 4 5zM686.001 313l15.001 -0.000976562c8 -6.66699 12 -13 12 -19c1.33301 0 7 6.33301 17 19h12v-5
c-11.333 -14.667 -17 -25 -17 -31c2 0 8.33301 -8.66699 19 -26v-3h-14l-17 19c-6 -11.333 -10.667 -17.666 -14 -18.999h-15c3.33301 6.66699 10.666 18 21.999 34l-20 29v2zM884.002 225.999c16 -4 24 -8.66602 24 -13.999v-10h-10l-9 10h-10
c-3.33301 -0.666992 -5 -2.33398 -5 -5.00098v-5c24.667 -4.66699 37 -10 37 -16v-8c0 -12.667 -7.33301 -19 -22 -19h-10c-8.66699 0 -15.667 4.66699 -21 14v10h14c0 -8 4.66699 -12 14 -12h3c2 0 4.33301 2.33301 7 7c0 2 -11.333 7.66699 -34 17l-2 5v12
c0 5.33301 8 10 24 14z" />
    <glyph glyph-name="D" unicode="D" horiz-adv-x="1067" 
d="M71 1432h434.999c182 0 307.333 -61.667 376 -185c57.333 -96.667 86 -256.334 86 -479.001h43v-342h-423v38h132v304h-38v125c0 140.667 -31.333 230.334 -94 269.001c-37.333 21.333 -96.666 32 -177.999 32h-58v-419h39v-349h-287v322h-33v684zM688.999 532h14v-36h8
v-12h-8v-15h-14v15h-26v9c17.333 24 26 37 26 39zM676.999 496h12v14c-2 0 -6 -4.66699 -12 -14zM404.999 498l14 0.00195312c2 0 7 -5.66699 15 -17c6.66699 8 10 13.667 10 17h16v-2c-10.667 -15.333 -16 -25 -16 -29l19 -31h-19c0 5.33301 -4 11.666 -12 18.999
c-6 -12 -11 -18.333 -15 -19h-14c10.667 19.333 17.667 29.666 21 30.999zM-57.001 426.002h130v-46h318v-94h197v94h423v-94h-291v-255h-329v-31h-316c-2.66699 0 -4 1.66699 -4 5v375h-128v46zM390.999 426.002h197v-46h-197v46zM1011 426.002h282v-46h-282v46z
M753.999 277.002h16.999c11.333 -31.333 18.333 -53 21 -65h-12c-2.66699 0 -5 4.66699 -7 14h-19c-3.33301 0 -5.66602 -4.66699 -6.99902 -14h-15v2c0 1.33301 7.33301 22.333 22 63zM808.998 277.002l15 -0.000976562l12 -41h2c0 2.66699 4 16.334 12 41.001h15
c0 -5.33301 -6.66699 -27 -20 -65h-14c-4 0 -11.333 21.667 -22 65zM888.998 277.001h17v-65h-17v65zM933.998 277.001l27 0.000976562c20.667 0 31 -12 31 -36c0 -16.667 -10.333 -26.334 -31 -29.001h-27v65zM950.998 262.002v-36h15c2 0 5 3.33301 9 10v17c0 2 -3 5 -9 9
h-15zM760.998 257.002c0 -2 -1.66699 -8.33301 -5 -19h12c-2.66699 10.667 -4 17 -4 19h-3z" />
    <glyph glyph-name="E" unicode="E" horiz-adv-x="887" 
d="M125 1432h706v-234c0 -3.33301 -1.66699 -5 -5 -5h-419v-311h376v-2c0 -9.33301 -1.66699 -60 -5 -152c-1.33301 0 -2 -1 -2 -3h17v-72h-326v-294h-87v-29h87v-89h369v-34h-29v-176h-441v-31h-210v513h-31v181h-229v31h229v707zM127 725v-31h118v31h-118zM489 313
l17 0.000976562v-24h2c0 4.66699 7.33301 12.667 22 24h17l-24 -26l26 -39h-17c-12.667 18 -19.667 27 -21 27c-3.33301 -0.666992 -5 -2.33398 -5 -5.00098v-22h-17v65zM573 313.001h34c10.667 0 18 -6.33301 22 -19c0 -2 -3.33301 -7.66699 -10 -17
c4.66699 0 8 -9.66699 10 -29h-12c-3.33301 0 -6 8 -8 24h-19v-24h-17v65zM682 313.001l9.00098 0.000976562c14.667 0 23.667 -9.66699 27 -29v-9c0 -5.33301 -2.33301 -11 -7 -17v-3c4.66699 0 7 -1.33301 7 -4s-2.33301 -5.33398 -7 -8.00098
c-2.66699 0 -5.33398 2.66699 -8.00098 8l-12 -3h-9c-16 0 -25 12 -27 36c4.66699 19.333 13.667 29 27 29zM672.001 284.002v-7.00098c0 -11.333 5.66699 -17 17 -17h2v3h-4v2c0 2.66699 2.33301 5 7 7l7 -4c0 0.666992 0.666992 5.33398 2 14.001
c-0.666992 12.667 -7 19 -19 19c-8 -2 -12 -7.66699 -12 -17zM590.001 299.001v-15h17c3.33301 0 5 1.66699 5 5v5c0 3.33301 -1.66699 5 -5 5h-17zM822.001 193.001h14v-3c0 -28.667 -2.33301 -43 -7 -43s-7 10.333 -7 31v15zM822.001 145.001h14v-15h-14v15z" />
    <glyph glyph-name="F" unicode="F" horiz-adv-x="861" 
d="M73 1432h719v-238h-434v-340h374l5 -3l-3 -5c-1.33301 -48 -2 -76 -2 -84h-41v-2c0 -17.333 -1.66699 -54.333 -5 -111h38c0 -27.333 -2.33301 -41 -7 -41h-263v-49h-137v-26h41v-125h137v-22h-137v-347l-2 -17h-148v-22h-130c-3.33301 0 -5 1.66699 -5 5v36l3 24h70v36
h-73v138h34v506h58v36h-92v651zM49 482h9.99902c3.33301 0 5 -1.66699 5 -5v-33c0.666992 -10 3 -15 7 -15h10c2 0 4.33301 2.33301 7 7v41c0.666992 3.33301 2.33398 5 5.00098 5h9v-46c0 -14 -9.66699 -21 -29 -21c-16 2 -24 9 -24 21v46zM362.999 458h2
c25.333 -11.333 40 -17 44 -17v-14l-44 -15h-2v8c0 2 9.66699 6.66699 29 14v2c-3.33301 0 -13 3.33301 -29 10v12zM224.999 408v-22h131v22h-131zM68.999 398l2.00195 -0.000976562c17.333 0 26 -7.33301 26 -22h-16c0 6.66699 -4 10 -12 10
c-2.66699 0 -5.33398 -2.33301 -8.00098 -7c24 -9.33301 36 -16 36 -20c0 -1.33301 1 -3.66602 3 -6.99902c0 -12 -9.66699 -19.333 -29 -22c-18 2.66699 -27 11 -27 25h17c0 -6.66699 1.66699 -10 5 -10h12c3.33301 0 5 1.66699 5 5v5c-24 6 -36 12.333 -36 19v9
c5.33301 10 12.666 15 21.999 15zM44.001 313.999l8.00195 0.000976562c9.33301 0 15.666 -6.66699 18.999 -20l17 20h12v-5c-11.333 -15.333 -17 -26 -17 -32c2 0 8.33301 -8.66699 19 -26v-3h-14c-1.33301 0 -7 6.66699 -17 20c-6 -12 -11 -18.667 -15 -20h-14
c11.333 20 18.666 30.667 21.999 32c-13.333 19.333 -20 30.666 -20 33.999z" />
    <glyph glyph-name="G" unicode="G" horiz-adv-x="1059" 
d="M533 1434l1.99902 0.000976562c214 0 345 -69.667 393 -209c22 -52 33 -125 33 -219l-233 -31l-3 5v5c0 112.667 -38 180 -114 202c-23.333 6 -51.666 10 -84.999 12c-82.667 0 -136 -44.333 -160 -133c-14 -59.333 -21 -129.333 -21 -210v-112
c0 -130.667 1.66699 -228.667 5 -294h59v-200h285v342h-180v183h542v-40h-71v-212h-145v-66h71v-407h-775v216h-88v19h38v22h50v81h-136v173h64c-1.33301 50.667 -2 80 -2 88c0 303.333 16.667 486.666 50 549.999c9.33301 39.333 37 83 83 131
c67.333 69.333 180 104 338 104zM370.999 533.001h14v-64h-14v64zM953.999 447.001c10 -3.33301 15.333 -7.33398 16 -12.001v-9c0 -2.66699 -3 -6 -9 -10c1.33301 -2.66699 2 -5 2 -7h5v5h12v-3c0 -7.33301 -1.66699 -11 -5 -11c0 -2 4 -7.66699 12 -17h-14l-7 5
c-6.66699 -4.66699 -13 -7 -19 -7c-10.667 0 -17 7 -19 21c2 6.66699 5.66699 11.334 11 14.001c-1.33301 8.66699 -2 15 -2 19c0 4.66699 5.66699 8.66699 17 12zM948.999 430c1.33301 -2.66699 2 -5 2 -7c2.66699 0 5 2.33301 7 7c0 3.33301 -1.33301 5 -4 5
c-3.33301 0 -5 -1.66699 -5 -5zM946.999 409l-5 -7v-2c0 -2.66699 2.33301 -5.33398 7 -8.00098c6 2.66699 9 5.33398 9 8.00098zM953.999 345c10 -3.33301 15.333 -7.33496 16 -12.002v-10c0 -2 -3 -5 -9 -9c1.33301 -3.33301 2 -5.66602 2 -6.99902h5v5h12v-3
c0 -8 -1.66699 -12 -5 -12c0 -1.33301 4 -6.66602 12 -15.999h-14l-7 4c-6.66699 -4.66699 -13 -7 -19 -7c-10.667 0 -17 7.33301 -19 22c2 6 5.66699 10.667 11 14c-1.33301 8.66699 -2 15 -2 19c0 4.66699 5.66699 8.66699 17 12zM948.999 327.998
c1.33301 -2.66699 2 -4.99902 2 -6.99902c2.66699 0 5 2.33301 7 7c0 3.33301 -1.33301 5 -4 5c-3.33301 -0.666992 -5 -2.33398 -5 -5.00098zM453.999 327.999c20.667 -3.33301 31 -12.667 31 -28v-7c-1.33301 -20.667 -11.666 -31 -30.999 -31h-2
c-19.333 0 -29 11.667 -29 35c5.33301 20.667 15.666 31 30.999 31zM508.999 325.998h52v-14h-16v-46c0 -2.66699 -1.66699 -4 -5 -4h-7c-3.33301 0 -5 1.33301 -5 4v46h-14c-3.33301 0 -5 1.33301 -5 4v10zM439.999 296.998l0.000976562 -12c0 -2 3.33301 -5 10 -9h11
c5.33301 0 8.66602 6.33301 9.99902 19c0 8 -4 14.333 -12 19h-2c-11.333 0 -17 -5.66699 -17 -17zM947 306.998l-4.99902 -7v-3c0 -2 2.33301 -4.33301 7 -7c6 2.66699 9 5 9 7c-6.66699 6.66699 -10.334 10 -11.001 10zM951.001 242.998c8 0 14.333 -4.00098 19 -12.001
v-10c0 -2.66699 -3 -5.66699 -9 -9c1.33301 -3.33301 2 -5.66602 2 -6.99902h5v4h12v-2c0 -8 -1.66699 -12 -5 -12c0 -1.33301 4 -7 12 -17h-14l-7 5c-6.66699 -4.66699 -13 -7 -19 -7c-10.667 0 -17 7 -19 21c2 6.66699 5.66699 11.667 11 15l-2 16v3
c0 2.66699 4.66699 6.66699 14 12zM949.001 225.997c1.33301 -3.33301 2 -5.66602 2 -6.99902c2.66699 0 5 2.33301 7 7c0 3.33301 -1.33301 5 -4 5c-3.33301 -0.666992 -5 -2.33398 -5 -5.00098zM947.001 204.997l-5 -8v-2c0 -2 2.33301 -4.33301 7 -7c6 2 9 4.33301 9 7z
M951.001 139.997c8 0 14.333 -4.00098 19 -12.001v-9c0 -2.66699 -3 -6 -9 -10c1.33301 -2.66699 2 -5 2 -7h5v5h12v-2l-5 -17c2 0 6 -4 12 -12h-14l-7 5c-6.66699 -4.66699 -13 -7 -19 -7c-10.667 0 -17 7 -19 21c2 6.66699 5.66699 11.334 11 14.001l-2 17v2
c0 3.33301 4.66699 7.33301 14 12zM949.001 123.996c1.33301 -3.33301 2 -5.66699 2 -7c2.66699 0 5 2.33301 7 7c0 2.66699 -1.33301 4 -4 4c-3.33301 0 -5 -1.33301 -5 -4zM947.001 101.995l-5 -7v-2c0 -2.66699 2.33301 -5 7 -7c6 2 9 4.33301 9 7zM335.001 28.9951h295
v-29h-295v29z" />
    <glyph glyph-name="H" unicode="H" horiz-adv-x="984" 
d="M53 1433h284v-571h287v571h241v-814h-99v-36h99v-583h-236c-3.33301 0 -5 1.66699 -5 5v619h-287v-619c0 -3.33301 -1.66699 -5 -5 -5h-238v747h-41v686zM865 619h127v-36h-127v36z" />
    <glyph glyph-name="I" unicode="I" horiz-adv-x="400" 
d="M82 1433l269.998 0.000976562c2.66699 -0.666992 4 -2.33398 4 -5.00098v-696c0 -3.33301 -1.33301 -5 -4 -5h-32v-722c0 -3.33301 -1.66699 -5 -5 -5h-233c-3.33301 0 -5 1.66699 -5 5v739h-72c-3.33301 0 -5 1.66699 -5 5v31c0.666992 3.33301 2.33398 5 5.00098 5h72
v643c0.666992 3.33301 2.33398 5 5.00098 5zM78.998 785.001v-41h138v41h-138z" />
    <glyph glyph-name="J" unicode="J" horiz-adv-x="842" 
d="M511 1432h275v-470h-28v-511h28v-411h-660v88h-126v162h76v28h-76v36h271v-100h242v138c0 47.333 -0.666992 112.333 -2 195h-212v21h212v824zM513 608v-21h81v21h-81zM278 19h351v-19h-351v19z" />
    <glyph glyph-name="K" unicode="K" horiz-adv-x="940" 
d="M47 1434l282.001 0.000976562v-270c0 -90 -1.66699 -187 -5 -291v-3h3c23.333 44 86.666 157.333 189.999 340c53.333 92.667 80 162.667 80 210v14h289v-7c0 -92 -37.667 -192.333 -113 -301l-172 -249l169 -359h152v-43h-171v-3c27.333 -58.667 45 -94 53 -106h31v-130
h44v-234c-49.333 -1.33301 -85.666 -2 -108.999 -2h-70c-24.667 0 -58.334 0.666992 -101.001 2v157h-63v207h-36l-38 109h286v43h-262c0 3.33301 -15.333 51.666 -46 144.999h-3c-16 -30.667 -48 -79 -96 -145h121v-43h-133v-70h-17v-328h17v-72
c0 -3.33301 -1.66699 -5 -5 -5h-272c-3.33301 0 -5 1.66699 -5 5v113h128v48h-128v1268zM777.001 591.001h15.001c4 0 8.66699 -13 14 -39c2.66699 0 7.66699 13 15 39h21v-61c0 -3.33301 -1.33301 -5 -4 -5h-10v39h-2c0 -2.66699 -4 -15.667 -12 -39h-8
c-4.66699 0 -9.33398 11.333 -14.001 34h-3v-29c0 -3.33301 -1.33301 -5 -4 -5h-8c-2.66699 0 -4 1.66699 -4 5v56c0 3.33301 1.33301 5 4 5zM163.002 518.001v-42.999h164c0 5.33301 4 19.666 12 42.999h-176zM539.002 149.002h14.002c2 0 7 -5.33301 15 -16
c6 10.667 10 16 12 16h14v-2l-19 -29c3.33301 -0.666992 10.666 -11 21.999 -31h-20l-9 19c-10 -12.667 -15.667 -19 -17 -19h-15c11.333 20 18.666 30.333 21.999 31l-19 29v2z" />
    <glyph glyph-name="L" unicode="L" horiz-adv-x="771" 
d="M18 1433h284v-588h-55v-607h423v-127h-84v-29h84v-82h-274v22h-376c-1.33301 16 -2 28 -2 36v320h72v43h-72v1012zM266 313h17c8 -11.333 12.667 -17 14 -17c5.33301 11.333 9.33301 17 12 17h15c-2 -5.33301 -8.33301 -15 -19 -29c3.33301 -6.66699 10.333 -18 21 -34
h-17c-8 7.33301 -12 14 -12 20c-1.33301 0 -7 -6.66699 -17 -20h-14v3l19 29v2zM670 111h104v-29h-104v29z" />
    <glyph glyph-name="M" unicode="M" horiz-adv-x="1356" 
d="M22 1434h320l218 -773h126c3.33301 0 17 46.333 41 139l179 634h296v-930h17v-170h-90v-31h90v-303h-252v111h31v344h-53v172h-32l-2 -9h-27v-245h-87v-114h-75v-194h-177v124h-109v170h-65v176h-37c-1.33301 10 -9.33301 40.667 -24 92h254l-7 34h-254l7 -34h-34v-222
h17v-245h-63v-44h63v-65h-228v295h-43v1088zM274 763v-17c0 -14.667 0.666992 -43 2 -85h24c-16 64.667 -24 98.667 -24 102h-2zM945 761l-22 -100h22c1.33301 41.333 2 71.333 2 90v10h-2zM194 661v-34h80v34h-80zM690 661l-7 -34h228c6.66699 18 10 29.333 10 34h-231z
M947 661v-34h175v34h-175zM569 627c11.333 -51.333 18.667 -77 22 -77h29v-128h46v198h12v7h-109zM1219 334h145v-31h-145v31zM1233 291l12 0.000976562v-22h20v17c0 3.33301 1.66699 5 5 5h4c3.33301 -0.666992 5 -2.33398 5 -5.00098v-46c0 -3.33301 -1.66699 -5 -5 -5h-9
v22h-20v-22h-12v56zM1233 218.001l34 0.000976562c3.33301 -0.666992 5 -2.33398 5 -5.00098v-7h-27v-10h22v-12h-22v-22h-12v56zM1236 145.002h33.999c2.66699 0 4 -1.33301 4 -4v-5l-26 -34h26v-12h-41c-3.33301 0 -5 2.33301 -5 7c5.33301 8 14.333 20 27 36h-24v8
c0.666992 2.66699 2.33398 4 5.00098 4zM1233 73.002l12 0.000976562v-32l3 -12h12c3.33301 0 5 1.66699 5 5v34c0 3.33301 1.66699 5 5 5h4c3.33301 -0.666992 5 -2.33398 5 -5.00098v-29c0 -14.667 -7.33301 -22 -22 -22h-4c-9.33301 0 -16 4 -20 12v44zM0 39.0029h257
v-22h-257v22z" />
    <glyph glyph-name="N" unicode="N" horiz-adv-x="1095" 
d="M56 1433h293.001c4 0 35.333 -76.667 94 -230c5.33301 -5.33301 66.666 -156.333 183.999 -453h75v683h257v-813h29v-317h-104v-61h104v-189h-385v240h-68c-92 224.667 -154 379.667 -186 465v242h-36v-736h-58v-254h-240v547h44v2c-2 472 -3 763.333 -3 874z
M971.001 988h26.999c12.667 0 19 -6.66699 19 -20c0 -4.66699 -2.33301 -7 -7 -7c4.66699 -6 7 -13.333 7 -22v-5h-12c-1.33301 13.333 -3.66602 20 -6.99902 20h-12v-20h-15v54zM986 976v-13h12c3.33301 0 5 1.66699 5 5v8h-17zM971 915h40.999v-12h-14v-41h-15v41h-12
c-3.33301 0 -5 1.66699 -5 5v2c0.666992 3.33301 2.33398 5 5.00098 5zM965.999 842h10c4 0 8 -10.333 12 -31h5l7 31h15l-17 -53h-12c-4 0 -10.667 17.667 -20 53zM968.999 770l13.999 -0.000976562c0.666992 -6 4 -11 10 -15c5.33301 10 9.33301 15 12 15h10v-3
c-10 -14.667 -15 -23.334 -15 -26.001c2.66699 -0.666992 8.33398 -8.66699 17.001 -24h-17c0 4.66699 -3 9.33398 -9 14.001c-6 -9.33301 -10.333 -14 -13 -14h-12c11.333 16.667 17 25.334 17 26.001c-9.33301 15.333 -14 24.333 -14 27zM486.998 749.999v-53h160
c-12.667 35.333 -20.667 53 -24 53h-136zM704.998 749.999v-52.999h-56c34 -85.333 54.333 -141 61 -167h2v7c-4.66699 87.333 -7 140.666 -7 159.999h116v53h-116zM970.998 697h24c16.667 -2 25 -10 25 -24v-2c0 -18 -7.33301 -27 -22 -27h-27v53zM985.998 685v-31
c12.667 0 19 4.66699 19 14v3c0 8 -2.33301 12.667 -7 14h-12zM549.998 278l35.999 0.00195312v-12h-26v-9h21c3.33301 -0.666992 5 -2.33398 5 -5.00098v-3c0 -3.33301 -1.66699 -5 -5 -5h-21v-9h24c3.33301 -0.666992 5 -2.33398 5 -5.00098v-2
c0 -3.33301 -1.66699 -5 -5 -5h-34c-3.33301 0 -5 1.66699 -5 5v46c0.666992 2.66699 2.33398 4 5.00098 4zM258.997 252.002h15c6.66699 -20 10 -31.333 10 -34h2c4 22.667 8 34 12 34h10v-3c-10 -34 -16.333 -51 -19 -51h-13c0 4.66699 -5.66699 22.667 -17 54z
M568.997 206.002l4.99902 0.000976562c3.33301 -0.666992 5 -2.33398 5 -5.00098v-32c0 -8.66699 -4 -15 -12 -19h-7c-11.333 0 -17 5.66699 -17 17v5h12c0 -6.66699 1.66699 -10 5 -10h4v39c0.666992 3.33301 2.33398 5 5.00098 5zM549.996 133.003h4.99902
c3.33301 0 5 -6.33301 5 -19l21 19h13v-2l-20 -22c2 0 9.33301 -9.66699 22 -29l-5 -3h-7c-2 0 -8.66699 7.33301 -20 22c-2.66699 0 -5 -7.33301 -7 -22h-7c-3.33301 0 -5 1.66699 -5 5v46c0.666992 3.33301 2.33398 5 5.00098 5zM602.995 27.0029h465v-27h-465v27z" />
    <glyph glyph-name="O" unicode="O" horiz-adv-x="1115" 
d="M550 1433c205.333 0 340.332 -72.001 404.999 -216.001c36.667 -70 55 -205 55 -405v-7h-106v-48h106v-517h-70v-187h-139v-53h-486v53h-60v187h-125v146h75v76h-75v-76h-177v76h134c-1.33301 117.333 -2 207 -2 269v122c0 226.667 38.333 378.334 115 455.001
c70.667 83.333 187.334 125 350.001 125zM374.999 938.999l2.00098 -0.000976562l-2 -4v-130h-108v-48h108c-2 -206 -3 -361.667 -3 -467v-50h240v79h110v2c0 97.333 -0.666992 233 -2 407c0 7.33301 0.666992 26 2 56c0 188.667 -11 304.334 -33 347.001
c-22.667 41.333 -64.334 62 -125.001 62h-36c-72 0 -116.667 -31.667 -134 -95c-8 -32 -14.333 -85 -19 -159zM1010 804.998h172v-48h-172v48zM1022 747.998h5c4 0 7 -9.66699 9 -29c2.66699 0 6.66699 9.66699 12 29h7c4 0 7.33301 -10.333 10 -31h2l7 31h12v-3
c-7.33301 -34.667 -12.666 -52 -15.999 -52h-10c0 2.66699 -2.33301 13 -7 31h-2c-2.66699 -20.667 -6 -31 -10 -31h-10c-4.66699 20.667 -9.33398 38 -14.001 52zM1027 675.998h8.99902c4 0 9 -11.333 15 -34h2c0 3.33301 3 14.666 9 33.999h17v-55h-12v28h-2
c-4.66699 -18.667 -8.66699 -28 -12 -28h-7c-4.66699 14.667 -7 23.334 -7 26.001h-3c0 -17.333 -1.66699 -26 -5 -26h-9v50c0.666992 3.33301 2.33398 5 5.00098 5zM1019 603.998l9.99902 -0.000976562c8 -4.66699 12 -10.334 12 -17.001
c0.666992 0 5.33398 5.66699 14.001 17h10v-5l-14 -21c0 -1.33301 5.33301 -10.333 16 -27v-2h-12l-14 17c-5.33301 -11.333 -9.33301 -17 -12 -17h-12c11.333 16.667 17 26.334 17 29.001c-10 14.667 -15 23.334 -15 26.001zM1027 531.997h13.999c16 0 24 -5.66699 24 -17
v-2l-5 -7c2.66699 0 5 -2.66699 7 -8v-9c-3.33301 -8 -11.333 -12 -24 -12h-21v50c0.666992 3.33301 2.33398 5 5.00098 5zM1036 519.997v-10h15v10h-15zM664.997 519.997h13.999v-19h17v14c0.666992 3.33301 2.33398 5 5.00098 5h9v-53h-14v22h-17v-22h-14v53z
M1036 500.997v-12h17v7c0 3.33301 -1.66699 5 -5 5h-12zM1027 459.997l30.999 0.000976562c2.66699 -0.666992 4 -2.33398 4 -5.00098v-7h-26v-9h24v-12h-24v-10h26v-12h-40v50c0.666992 3.33301 2.33398 5 5.00098 5zM664.995 447.998h40v-5c0 -6 -8 -18 -24 -36
c18 0 27 -1.33301 27 -4v-8h-46v10c12 14 20 24.333 24 31h-21v12zM412.995 378.998c14 0 22 -10.667 24 -32c0 -15.333 -9.66699 -24 -29 -26c-16 4 -24 12.667 -24 26c0 21.333 9.66699 32 29 32zM678.995 375.998h14.001c0 -4 6.66699 -21.333 20 -52h-12
c-3.33301 0 -5 3 -5 9h-17c-3.33301 0 -5 -3 -5 -9h-14v2c3.33301 6 9.66602 22.667 18.999 50zM398.996 356.998v-10c0 -9.33301 4.66699 -14 14 -14c6.66699 1.33301 10 6 10 14v10c0 2.66699 -3.33301 6 -10 10h-5c-2 0 -5 -3.33301 -9 -10zM683.996 356.998l-3 -12h10
c-2 8 -4.33301 12 -7 12zM407.996 306.998c10.667 0 18.667 -5 24 -15v-7h-12c0 6.66699 -4.66699 10 -14 10l-7 -10v-9c0 -10 4.66699 -15 14 -15c1.33301 0 5.33301 4 12 12h10c0 -13.333 -9 -21.333 -27 -24c-16 4.66699 -24 13.667 -24 27c2 20.667 10 31 24 31z" />
    <glyph glyph-name="P" unicode="P" horiz-adv-x="1035" 
d="M21 1431l369 0.00195312c216 0 354 -55.667 414 -167c35.333 -70.667 53 -160.334 53 -269.001c-2 -19.333 -3 -39 -3 -59h205v-69h-212v2c3.33301 41.333 5 63.666 5 66.999h-119v-69h114v-243h-236v-84h-2c-182 -1.33301 -285 -2 -309 -2v-126h-50v-224h28v-188h-224
v88h-31v74c0 85.333 -0.666992 224.333 -2 417h136v73h-136v779zM300 1188v-406.999h85v59h169c22.667 20.667 34 78.667 34 174c0 91.333 -20.667 143.666 -62 156.999c-15.333 11.333 -50.333 17 -105 17h-121zM864 852.003h7c8 -6.66699 12 -13 12 -19l16 19h10v-4
c-12.667 -17.333 -19 -34 -19 -50h-7c-3.33301 0 -5.66602 9.33301 -6.99902 28c-2.66699 0 -8.33398 8 -17.001 24zM861 781.003h43v-12h-14v-38c0 -3.33301 -1.66699 -5 -5 -5h-5c-2.66699 0 -4 1.66699 -4 5v38h-15v12z" />
    <glyph glyph-name="Q" unicode="Q" horiz-adv-x="991" 
d="M462 1433c178 0 294.667 -62.332 350 -186.999c32 -60.667 48 -177.334 48 -350.001v-6h-91v-41h91v-447h-60v-162h-120v-157h52v-83h-230v91h-151v149h-168v162h-83v126h64v66h-64v-66h-153v66h116c-1.33301 100.667 -2 178 -2 232v106c0 195.333 33 326.333 99 393
c61.333 72 162 108 302 108zM311 1006l2.00195 0.000976562l-2 -4v-112h-93v-41h93c-1.33301 -178.667 -2 -313.334 -2 -404.001v-43h93v68h210v2c0 84 -1 201.333 -3 352c0 6 1 22 3 48c0 162.667 -9.66699 262.667 -29 300c-20 36 -56 54 -108 54h-31
c-62.667 0 -101.334 -27.667 -116.001 -83c-6.66699 -27.333 -12.334 -73 -17.001 -137zM860.002 890.002h149v-41h-149v41zM872.002 840.002h29c2.66699 0 4 -1.33301 4 -4v-6h-22v-8h14c2.66699 -0.666992 4 -2 4 -4v-6h-18v-19h-11v47zM872.002 778.002
l17.001 0.000976562c10.667 0 17.667 -3.33301 21 -10v-8l-5 -6c3.33301 -4.66699 5.66602 -12.334 6.99902 -23.001h-9c-1.33301 0 -4 5.33301 -8 16c-2 1.33301 -4.66699 2 -8 2h-4v-18h-11v47zM883.003 768.003v-10h12c2.66699 0 4 1.33301 4 4v2
c0 2.66699 -1.33301 4 -4 4h-12zM887.003 716.003h8.00098l17 -47h-9c-2.66699 0 -4.66699 3.33301 -6 10h-16l-2 -10h-11v2c9.33301 30 15.666 45 18.999 45zM885.004 687.003h8v2l-2 11c-2.66699 0 -4.66699 -4.33301 -6 -13zM580.004 590.003
c9.33301 -2.66699 15 -6.66602 17 -11.999v-5h-8l-9 7h-4c-2.66699 -0.666992 -4 -2 -4 -4s7.66699 -5.66699 23 -11c2.66699 -4.66699 4 -8 4 -10c-3.33301 -10 -10.333 -15 -21 -15c-6.66699 0 -12.667 4.33301 -18 13v6h10c0.666992 -5.33301 2.66699 -8 6 -8h11v4
c0 1.33301 -7.66699 5.33301 -23 12c-1.33301 2.66699 -2 5.66699 -2 9v4c0 3.33301 6 6.66602 18 9.99902zM585.004 528.004c12 0 18.668 -8.33301 20.001 -25v-4l-4 -15c2.66699 0 4 -1.33301 4 -4c-2.66699 0 -4 -1.33301 -4 -4l-8 4l-10 -2
c-15.333 2.66699 -23 11 -23 25c3.33301 16.667 11.666 25 24.999 25zM572.005 503.004c0 -7.33301 2.66699 -12 8 -14h5l-2 4c0 2.66699 1.33301 4 4 4h2l4 -2c0 1.33301 0.666992 3.33301 2 6c0 10 -4 15.667 -12 17c-7.33301 -2 -11 -7 -11 -15z" />
    <glyph glyph-name="R" unicode="R" horiz-adv-x="917" 
d="M36 1430l490 0.000976562c164 0 270 -57.667 318 -173c20.667 -59.333 31 -127.333 31 -204v-60c0 -138.667 -30.333 -244.334 -91 -317.001h-104v-53h159v-342h-94v-53h142v-202h-298v323h-115v209h-200v-354h43v-204h-276c-3.33301 0 -5 1.66699 -5 5v574h123v41h-123
v810zM317 1197v-404h68c102 0 161 9.66699 177 29c16.667 10.667 29.667 32.334 39 65.001h106v51h-96v-5c-5.33301 -30.667 -9.33301 -46 -12 -46h-137v51h144c3.33301 0 5 1.33301 5 4c1.33301 41.333 2 64.666 2 69.999c0 89.333 -15.333 144 -46 164
c-24 14 -68 21 -132 21h-118zM286 546.001h12c6.66699 -3.33301 10 -8.33301 10 -15c2.66699 0 5.66699 5 9 15h15v-3l-15 -21c0 -1.33301 5.66699 -10.333 17 -27v-2h-12c-1.33301 0 -6 5.66699 -14 17c-4.66699 -10.667 -8.66699 -16.334 -12 -17.001h-12
c10.667 16.667 16 26.334 16 29.001zM288 474.001h44v-8l-27 -33h27v-12h-46v9l26 34h-24v10z" />
    <glyph glyph-name="S" unicode="S" horiz-adv-x="961" 
d="M484 1429c158.667 0 264.997 -51.001 318.997 -153.001c37.333 -77.333 56 -153 56 -227h-2c-108.667 -9.33301 -183 -14 -223 -14c0 52.667 -16.333 97 -49 133c-30.667 17.333 -59 26 -85 26h-40c-68 0 -109.333 -26.333 -124 -79c-3.33301 -15.333 -5 -27.333 -5 -36
v-21c0 -74.667 39.333 -128.667 118 -162c6.66699 -6 61.334 -31 164.001 -75c54.667 -25.333 105.334 -56.666 152.001 -93.999v-2h-251v-28h331v-40h42v-434h-82v-223h-636v223h-150v150h85v52h-85v35h291v-237h298v357h-223v117h-277v28h134v2
c-117.333 78 -176 188.333 -176 331v19c0 119.333 36.667 210 110 272c66.667 53.333 169.334 80 308.001 80zM844.997 724.999h101v-28h-101v28zM-77.0029 424.999h96v-52h-96v52zM563.997 424.999l29.999 0.000976562c3.33301 -0.666992 5 -2.33398 5 -5.00098v-7h-26v-9
h23v-7c0 -3.33301 -1.33301 -5 -4 -5h-19v-10h26v-7c0 -2.66699 -1.66699 -4 -5 -4h-30c-3.33301 0 -5 1.33301 -5 4v45c0.666992 3.33301 2.33398 5 5.00098 5zM551.996 354l8.99805 -0.000976562c1.33301 0 7 -6 17 -18c4.66699 12 8.33398 18 11.001 18h7
c3.33301 0 5 -1.33301 5 -4c-14 -16 -21 -32.667 -21 -50h-7c-3.33301 0 -5.66602 9.33301 -6.99902 28c-9.33301 12.667 -14 21.334 -14 26.001zM544.994 283.999l8.99902 0.000976562c4 0 8 -10.333 12 -31h5c4 20.667 7.66699 31 11 31h10
c2.66699 -0.666992 4 -2.33398 4 -5.00098v-44c0 -3.33301 -1.33301 -5 -4 -5h-7v30h-3l-9 -30h-7c-3.33301 0 -7.33301 10 -12 30h-2v-30h-7c-3.33301 0 -5 1.66699 -5 5v44c0.666992 3.33301 2.33398 5 5.00098 5zM818.993 211h24c12.667 0 19 -6.33301 19 -19
c-3.33301 0 -5 -1.33301 -5 -4c4.66699 -6 7 -11.667 7 -17c-4 -9.33301 -12.667 -14 -26 -14h-14c-3.33301 0 -5 1.66699 -5 5v49zM832.993 199v-9h10c2.66699 0 4 1.66699 4 5v4h-14zM832.993 181v-12h12c3.33301 0 5 1.66699 5 5v2c0 3.33301 -1.66699 5 -5 5h-12z
M818.993 141h10c3.33301 0 10.333 -11 21 -33h2v33h12v-49c0 -3.33301 -1.66699 -5 -5 -5h-5c-1.33301 0 -9 10 -23 30v-25c0 -3.33301 -1.66699 -5 -5 -5h-2c-3.33301 0 -5 1.66699 -5 5v49z" />
    <glyph glyph-name="T" unicode="T" horiz-adv-x="736" 
d="M-42 1433h840v-239h-278v-991h126v-29h-126v-109h-75v-38h53v-27h-255c-3.33301 0 -5 1.66699 -5 5v1189h-280v239zM421 203v-29h97v29h-97z" />
    <glyph glyph-name="U" unicode="U" horiz-adv-x="939" 
d="M22 1434h276v-758h-130v-41h130v-141c0 -129.333 23 -205 69 -227c23.333 -14 52.333 -21 87 -21h85v250h76v938h274v-881h-99v-64h99c-1.33301 -21.333 -2 -37 -2 -47v-281h-144v-161h-641v198h-59v593h-21v643zM298 676h156v-41h-156v41zM757 149h8.99902
c4 0 8 -11 12 -33h2c6.66699 19.333 10 30.333 10 33h14c-10 -36.667 -17 -55 -21 -55h-7c-3.33301 0 -9.66602 18.333 -18.999 55z" />
    <glyph glyph-name="V" unicode="V" horiz-adv-x="1047" 
d="M6 1433l303.999 0.000976562c2 -16 40.333 -202 115 -558h63v-55h-76v55h-107v-55h107v-257h34v-133h84v196h31v194h61v55h-48c75.333 356 114 542 116 558h304c-110 -478 -165 -721.667 -165 -731v-249h-84v-50h63v-146h-113v-257h-356c-4 0 -13.667 36.667 -29 110h92
v60h-103c-4 0 -13.333 38.667 -28 116c-7.33301 23.333 -95.666 405.666 -264.999 1147zM710.999 246.001h31.001c8.66699 0 14.667 -5 18 -15l-7 -16c3.33301 0 5.66602 -8.66699 6.99902 -26h-10c-3.33301 0 -6 7 -8 21h-18v-21h-13v57zM724 236.001v-13h16
c3.33301 0 5 1.66699 5 5v3c0 3.33301 -1.66699 5 -5 5h-16zM711 168.001h42v-8c0 -3.33301 -2 -5 -6 -5h-23v-8h23v-13h-23v-24h-13v58zM711 89.001h13v-58h-13v58z" />
    <glyph glyph-name="W" unicode="W" horiz-adv-x="1367" 
d="M-3 1433h271l80 -720h75c1.33301 6 23.333 246 66 720h343c44 -489.333 67 -738.666 69 -747.999h113c50 429.333 78 678.666 84 747.999h271l-113 -760h-21v-141h-205v-36h162v-214h-155v-188h-42v-82h-174v463h-113v167c0 14.667 -15 149.667 -45 405h-5v-2l-37 -332
h18v-513h-167v-200h-214v200h-82v473h-66zM119 652h14l10 -31h2c4.66699 20.667 8.66699 31 12 31h9v-3c-9.33301 -32.667 -15.333 -49 -18 -49h-12c0 4.66699 -5.66699 22 -17 52zM117 581l14 -0.000976562v-35c0 -1.33301 3.33301 -3.66602 10 -6.99902c6 2 9 4.33301 9 7
v35h14v-26c0 -13.333 -4.66699 -22 -14 -26h-14c-12.667 0 -19 8.66699 -19 26v26zM117 510.999h35c2.66699 0 6 -3.33301 10 -10v-9l-5 -7c2.66699 -5.33301 5 -14 7 -26h-14c0 4 -0.666992 10.333 -2 19h-17v-19h-9c-3.33301 0 -5 1.66699 -5 5v47zM131 500.999v-11.999
h14c3.33301 0 5 1.66699 5 5c-1.33301 3.33301 -2 5.66602 -2 6.99902h-17zM126 440l38 0.000976562v-12h-23v-7h16c3.33301 -0.666992 5 -2.33398 5 -5.00098v-7h-21v-21h-10c-3.33301 0 -5 1.66699 -5 5v47zM141 372.001c14 -3.33301 20.998 -9.66699 20.998 -19l-5 -2h-5
l-9 9h-7c-6.66699 -2.66699 -10 -8 -10 -16c0 -11.333 5 -17 15 -17c6 2.66699 9 5 9 7v2c-8 0 -12 1.66699 -12 5v3c0.666992 2.66699 2.33398 4 5.00098 4h19v-30h-3c-1.33301 0 -3.66602 0.666992 -6.99902 2l-14 -2h-2c-14 2 -21 9 -21 21v9
c0 13.333 8.66699 21.333 26 24zM116.998 299h14v-19h19v19h14v-47c0 -3.33301 -1.66699 -5 -5 -5h-9v21h-19v-21h-9c-3.33301 0 -5 1.66699 -5 5v47zM1044 271h14c3.33301 -14 5 -23.667 5 -29h2c4.66699 15.333 7 25 7 29h10c4 0 7 -10.333 9 -31h3
c2.66699 20.667 5.66699 31 9 31h9c-7.33301 -34.667 -12.666 -52 -15.999 -52h-10l-7 28h-2c-3.33301 -17.333 -5 -26.666 -5 -27.999h-14c-2.66699 13.333 -7.33398 30.666 -14.001 51.999zM1046 200h12.001c3.33301 0 6.66602 -4.66699 9.99902 -14
c2.66699 0 5.66699 4.66699 9 14h14v-2l-14 -22c0 -0.666992 5.66699 -9 17 -25v-3h-12c-4 0 -8 5.66699 -12 17c-8 -11.333 -12.667 -17 -14 -17h-12c0 1.33301 5.66699 10 17 26v2l-15 22v2z" />
    <glyph glyph-name="X" unicode="X" horiz-adv-x="991" 
d="M29 1432l288.998 0.000976562v-12c0 -90.667 16.667 -159.667 50 -207c86.667 -153.333 130 -236 130 -248h3c0 7.33301 51.333 108.666 154 303.999c12.667 49.333 19 93.333 19 132v31h272v-2c0 -134.667 -24 -235.667 -72 -303
c-10.667 -20.667 -87.667 -142 -231 -364c30 -48 45 -73.667 45 -77h-89v-41h114c8 -8 59.333 -90.667 154 -248v-180h48v-111h-106v-34h106v-55h-323v380h-36c-44.667 95.333 -67 146 -67 152h-3c-12.667 -33.333 -36 -84 -70 -152v-197h-98v-198
c-49.333 -1.33301 -85.666 -2 -108.999 -2h-185l-24 2v234h65v205h166v36h-77v139h104c4.66699 5.33301 33.334 50.333 86.001 135v5c-156 233.333 -241 361.666 -255 384.999c-40 62.667 -60 157.334 -60 284.001v7zM331.998 193.001h14.999c0 -2.66699 3 -14 9 -34h3
c4.66699 22.667 8.66699 34 12 34h14v-56h-7c-3.33301 0 -5 1.66699 -5 5v24h-2c-5.33301 -19.333 -9.33301 -29 -12 -29h-3c-8 7.33301 -12 16.333 -12 27h-2c0 -18 -1.66699 -27 -5 -27h-5c-3.33301 0 -5 1.66699 -5 5v46c0.666992 3.33301 2.33398 5 5.00098 5z
M331.997 120.001h18.999c9.33301 0 16 -4 20 -12v-12c-4 -8 -10.667 -12 -20 -12h-9v-14c0 -3.33301 -1.66699 -5 -5 -5h-5c-3.33301 0 -5 1.66699 -5 5v46c0.666992 2.66699 2.33398 4 5.00098 4zM341.996 108.001v-12h12c3.33301 0 5 1.66699 5 5v3
c0 2.66699 -1.66699 4 -5 4h-12z" />
    <glyph glyph-name="Y" unicode="Y" horiz-adv-x="1041" 
d="M85 1434h281.999c0 -138 24 -255.333 72 -352c52 -125.333 87.333 -225 106 -299v-2h3c24 88 73.667 224.333 149 409c19.333 88 29 169.333 29 244h265c-16 -144 -36 -250 -60 -318l-159 -362h-97v-248h-147v-48h147v-458h-274c-3.33301 0 -5 1.66699 -5 5v224h-43v397
h81v37h-89c-7.33301 8.66699 -62.666 133 -165.999 373c-43.333 96 -65 154 -65 174h118v50h-128c-12.667 106 -19 164 -19 174zM-86.001 1260h190l8 -50h-198v50zM686.999 745h44v-10l-27 -34h27v-7c0 -3.33301 -1.66699 -5 -5 -5h-36c-3.33301 0 -5 1.66699 -5 5v5l27 33
h-25v13zM674.999 506h118v-48h-118v48z" />
    <glyph glyph-name="Z" unicode="Z" horiz-adv-x="878" 
d="M12 1435l756.001 0.000976562v-182c0 -4 -38.667 -87.667 -116 -251h256v-63h-283c-2 0 -27.667 -51.333 -77 -154c-1.33301 -7.33301 -26.333 -61.333 -75 -162h41c-51.333 -112.667 -80.333 -173 -87 -181h-123v-56h99l-67 -144h263v-75h237v-162
c0 -3.33301 -1.66699 -5 -5 -5h-399v24h-420v138h60v154c11.333 29.333 59.666 131.666 144.999 306.999h-41v3l273 569h-437v240zM517.001 1002v-63h101c3.33301 0 14 21 32 63h-133z" />
    <glyph glyph-name="bracketleft" unicode="[" horiz-adv-x="758" 
 />
    <glyph glyph-name="backslash" unicode="\" horiz-adv-x="569" 
 />
    <glyph glyph-name="bracketright" unicode="]" horiz-adv-x="758" 
 />
    <glyph glyph-name="asciicircum" unicode="^" 
 />
    <glyph glyph-name="underscore" unicode="_" horiz-adv-x="742" 
d="M-360 -97h1128v-73h-252v-62h-876v135z" />
    <glyph glyph-name="grave" unicode="`" horiz-adv-x="1024" 
d="M673 1079l-69 0.000976562l-330 202c-20.667 13.333 -36.167 26.666 -46.5 39.999s-15.5 27.333 -15.5 42c0 20.667 6.83301 37.667 20.5 51s31.5 20 53.5 20c13.333 0 26.833 -4 40.5 -12s32.167 -23.667 55.5 -47z" />
    <glyph glyph-name="a" unicode="a" horiz-adv-x="984" 
d="M451 1430h241c3.33301 -14 81.333 -274.333 234 -781h44v-471h-99v-36h99v-101h-266v289h-325v-123h-133v-207h-241v14h19v193h99v401h82zM564 1027v-2c-20.667 -114 -60.667 -293.333 -120 -538h224v162h-19c-53.333 231.333 -80 357.333 -80 378h-5zM-65 651h188v-43
h-188v43zM704 24h321v-24h-321v24z" />
    <glyph glyph-name="b" unicode="b" horiz-adv-x="995" 
d="M53 1420l403 -0.00195312c180 0 294.333 -45.333 343 -136c27.333 -47.333 41 -112 41 -194v-99c0 -93.333 -40.333 -168.666 -121 -225.999c27.333 -4.66699 62 -25.667 104 -63h32c39.333 -41.333 65 -81 77 -119c3.33301 -13.333 5 -20.666 5 -21.999h39v-24h-129v24
h-264v75h-260v-413h163v29h97v285h264v-251h29v-157h-87v-37h87v-65h-335v-27h-366v27h-80v218h109v58h-109c-2 111.333 -3 194 -3 248v105h-92v26h92v56h-43v677c0 3.33301 1.33301 5 4 5zM328 1180l0.000976562 -352h60c71.333 0 118.333 12 141 36
c22.667 19.333 34 71.333 34 156v5c0 72 -11.333 115.667 -34 131c-14.667 16 -66.334 24 -155.001 24h-46zM95.001 681.998v-26h131v26h-131zM449.001 560.998h134v-24h-134v24z" />
    <glyph glyph-name="c" unicode="c" horiz-adv-x="1047" 
d="M558 1433c200 0 325.667 -62.6689 377 -188.002c15.333 -30 23 -50 23 -60h-126v-38h136v2c0 6.66699 -3.33301 18.667 -10 36h231v-38h-219v-3c11.333 -54 19.333 -111.667 24 -173c0 -3.33301 -87.667 -9.66602 -263 -18.999v2c0 158.667 -54.333 238 -163 238h-30
c-81.333 0 -131 -34.667 -149 -104c-14 -58 -21 -135 -21 -231v-195l-3 -29h-92v-45h92v-347h385v361h222v-361h-123v-222h-257v-19h-200v19h-203v111h135v48h-203v164h-86v203h46c-2 82.667 -3 148.334 -3 197.001c0 218 10.333 355.333 31 412
c20.667 65.333 53 121.333 97 168c78.667 74 196 111 352 111z" />
    <glyph glyph-name="d" unicode="d" horiz-adv-x="1040" 
d="M70 1430l436 -0.000976562c181.333 0 306 -61.667 374 -185c58.667 -96 88 -255.333 88 -478h43v-342h-424v39h133v303h-39v125c0 140.667 -31.333 230.334 -94 269.001c-36.667 20.667 -95.667 31 -177 31h-59v-418h40v-349h-286v323h-35v682zM-57 424.999h129v-45h319
v-94h196v94h424v-94h-291v-255h-329v-31h-316c-3.33301 0 -5 1.66699 -5 5v375h-127v45zM391 424.999h196v-45h-196v45zM1011 424.999h281v-45h-281v45z" />
    <glyph glyph-name="e" unicode="e" horiz-adv-x="909" 
d="M95 1423h701v-233c0 -3.33301 -1.66699 -5 -5 -5h-416v-308h373v-3c0 -8.66699 -1.33301 -59 -4 -151c-2 0 -3 -0.666992 -3 -2h17v-72h-323v-292h-87v-29h87v-89h366v-33h-29v-175h-438v-31h-208v510h-31v180h-228v31h228v702zM97 721v-31h117v31h-117z" />
    <glyph glyph-name="f" unicode="f" horiz-adv-x="718" 
d="M0 1427h716v-238h-432v-338h372l5 -3l-3 -5c-1.33301 -48 -2 -76 -2 -84h-41v-2c0 -16.667 -1.66699 -53.667 -5 -111h39c0 -26.667 -2.33301 -40 -7 -40h-262v-49h-137v-26h41v-125h136v-22h-136v-346l-3 -16h-146v-22h-130c-3.33301 0 -5 1.66699 -5 5v36l2 24h70v36
h-72v137h34v504h57v37h-91v648zM151 406v-22h130v22h-130z" />
    <glyph glyph-name="g" unicode="g" horiz-adv-x="1062" 
d="M531 1430l3.00195 -0.000976562c213.333 0 343.666 -69.667 390.999 -209c22 -51.333 33 -124 33 -218l-232 -31l-3 5v5c0 112.667 -38 179.667 -114 201c-22.667 6.66699 -51 10.667 -85 12c-82 0 -135 -44.333 -159 -133c-14 -58.667 -21 -128 -21 -208v-112
c0 -130 1.66699 -228 5 -294h59v-199h284v341h-180v183h541v-40h-71v-211h-145v-67h71v-405h-773v216h-88v19h38v21h50v81h-135v173h64c-1.33301 50.667 -2 79.667 -2 87c0 302.667 16.333 485.334 49 548.001c10 40 37.667 83.667 83 131
c67.333 69.333 179.666 104 336.999 104zM334.002 27.999h294v-28h-294v28z" />
    <glyph glyph-name="h" unicode="h" horiz-adv-x="957" 
d="M23 1430h284v-570h286v570h240v-812h-99v-36h99v-582h-236c-2.66699 0 -4 1.66699 -4 5v617h-286v-617c0 -3.33301 -1.66699 -5 -5 -5h-238v745h-41v685zM833 618h127v-36h-127v36z" />
    <glyph glyph-name="i" unicode="i" horiz-adv-x="400" 
d="M82 1433l269.998 0.000976562c2.66699 -0.666992 4 -2.33398 4 -5.00098v-696c0 -3.33301 -1.33301 -5 -4 -5h-32v-722c0 -3.33301 -1.66699 -5 -5 -5h-233c-3.33301 0 -5 1.66699 -5 5v739h-72c-3.33301 0 -5 1.66699 -5 5v31c0.666992 3.33301 2.33398 5 5.00098 5h72
v643c0.666992 3.33301 2.33398 5 5.00098 5zM78.998 785.001v-41h138v41h-138z" />
    <glyph glyph-name="j" unicode="j" horiz-adv-x="842" 
d="M511 1432h275v-470h-28v-511h28v-411h-660v88h-126v162h76v28h-76v36h271v-100h242v138c0 47.333 -0.666992 112.333 -2 195h-212v21h212v824zM513 608v-21h81v21h-81zM278 19h351v-19h-351v19z" />
    <glyph glyph-name="k" unicode="k" horiz-adv-x="911" 
d="M0 1424l280.001 -0.000976562v-268c0 -89.333 -1.66699 -185.666 -5 -288.999v-3h3c22.667 44 85.667 156.667 189 338c52.667 92 79 161.333 79 208v14h287v-7c0 -91.333 -37.333 -191 -112 -299l-170 -247l167 -356h151v-43h-170v-3c27.333 -58.667 45 -93.667 53 -105
h31v-129h43v-233c-48.667 -1.33301 -84.667 -2 -108 -2h-69c-24.667 0 -58.334 0.666992 -101.001 2v156h-62v206h-36l-38 108h285v43h-261c0 3.33301 -15.333 51 -46 143h-2c-16 -30 -48 -77.667 -96 -143h120v-43h-132v-70h-17v-325h17v-72c0 -3.33301 -1.66699 -5 -5 -5
h-270c-3.33301 0 -5 1.66699 -5 5v112h127v48h-127v1259zM115.001 514.999v-42.999h163c0 5.33301 4 19.666 12 42.999h-175z" />
    <glyph glyph-name="l" unicode="l" horiz-adv-x="762" 
d="M0 1436h285v-589h-56v-608h425v-128h-84v-29h84v-82h-275v22h-377c-1.33301 16 -2 28 -2 36v321h72v43h-72v1014zM654 111h104v-29h-104v29z" />
    <glyph glyph-name="m" unicode="m" horiz-adv-x="1326" 
d="M22 1426h318l216 -768h126c3.33301 0 17 45.667 41 137l178 631h294v-925h16v-169h-89v-31h89v-301h-250v111h31v342h-53v171h-31l-2 -10h-27v-243h-87v-113h-74v-193h-176v123h-108v168h-65v176h-37c-1.33301 9.33301 -9.33301 40 -24 92h253l-7 34h-253l7 -34h-33v-222
h16v-243h-62v-43h62v-65h-226v293h-43v1082zM272 759v-17c0 -14.667 1 -42.667 3 -84h24c-16 64 -24 97.667 -24 101h-3zM939 756l-21 -98.001h21c2 40.667 3 70.334 3 89.001v9h-3zM193 657.999v-34h79v34h-79zM686 657.999l-7 -33.999h227c6 17.333 9 28.666 9 33.999
h-229zM942 658v-34h173v34h-173zM566 624c10.667 -51.333 18 -77 22 -77h29v-128h45v198h12v7h-108zM1211 332h145v-31h-145v31zM0 39h255v-22h-255v22z" />
    <glyph glyph-name="n" unicode="n" horiz-adv-x="1071" 
d="M41 1429h292c4 0 35.333 -76.333 94 -229c4.66699 -6 66 -156.667 184 -452h75v681h255v-811h29v-316h-103v-61h103v-188h-383v239h-68c-92 224 -154 378.667 -186 464v241h-36v-734h-58v-253h-239v545h43v3c-1.33301 470.667 -2 761 -2 871zM471 748v-53h159
c-12.667 35.333 -20.667 53 -24 53h-135zM688 748v-53h-56c34 -84.667 54.333 -140 61 -166h2v7c-4.66699 86.667 -7 139.667 -7 159h116v53h-116zM587 27h463v-27h-463v27z" />
    <glyph glyph-name="o" unicode="o" horiz-adv-x="1117" 
d="M550 1431c205.333 0 340.333 -71.668 405 -215.001c36.667 -70 55 -205 55 -405v-7h-106v-48h106v-517h-70v-186h-139v-53h-486v53h-59v186h-125v146h74v77h-74v-77h-177v77h134c-1.33301 116.667 -2 206 -2 268v122c0 226.667 38.333 378.334 115 455.001
c70 82.667 186.333 124 349 124zM375 937.999l3.00098 0.000976562l-3 -4v-130h-107v-48h107c-1.33301 -206 -2 -361.333 -2 -466v-51h239v79h110v3c0 97.333 -0.666992 233 -2 407c0 7.33301 0.666992 25.666 2 54.999c0 188 -11 303.667 -33 347
c-22.667 41.333 -64.334 62 -125.001 62h-35c-72.667 0 -117.667 -32 -135 -96c-8 -31.333 -14.333 -84 -19 -158zM1010 804h172v-48h-172v48z" />
    <glyph glyph-name="p" unicode="p" horiz-adv-x="1010" 
d="M0 1438l371 0.000976562c216.667 0 355.334 -56 416.001 -168c35.333 -70.667 53 -160.667 53 -270c-2 -20 -3 -40 -3 -60h206v-69h-213v2c3.33301 42 5 64.333 5 67h-120v-69h115v-244h-237v-84h-2c-182.667 -1.33301 -286.334 -2 -311.001 -2v-127h-50v-225h28v-189
h-225v89h-31v74c0 85.333 -0.666992 224.666 -2 417.999h136v74h-136v783zM280 1194v-409h86v59h170c22 20.667 33 79 33 175c0 91.333 -20.667 144 -62 158c-15.333 11.333 -50.333 17 -105 17h-122z" />
    <glyph glyph-name="q" unicode="q" horiz-adv-x="1024" 
d="M514 1429c177.333 0 293.667 -62 349 -186c31.333 -60.667 47 -177 47 -349v-6h-90v-42h90v-446h-59v-161h-120v-156h51v-83h-229v91h-150v148h-168v161h-82v126h64v66h-64v-66h-153v66h116c-1.33301 100.667 -2 178 -2 232v105c0 195.333 33 326 99 392
c60.667 72 161 108 301 108zM363.001 1003l2.00098 -0.000976562l-2 -4v-111h-93v-42h93c-1.33301 -177.333 -2 -311.333 -2 -402v-44h93v69h209v2c0 84 -0.666992 201 -2 351c0 6 0.666992 21.667 2 47c0 162.667 -9.66699 262.334 -29 299.001
c-19.333 36 -55.333 54 -108 54h-31c-62 0 -100.333 -27.333 -115 -82c-6.66699 -27.333 -12.334 -73 -17.001 -137zM910.002 887.999h149v-42h-149v42z" />
    <glyph glyph-name="r" unicode="r" horiz-adv-x="887" 
d="M0 1430l490 0.000976562c164 0 270 -57.667 318 -173c20.667 -59.333 31 -127.333 31 -204v-60c0 -138.667 -30.333 -244.334 -91 -317.001h-104v-53h159v-342h-94v-53h142v-202h-298v323h-115v209h-200v-354h43v-204h-276c-3.33301 0 -5 1.66699 -5 5v574h123v41h-123
v810zM281 1197v-404h68c102 0 161 9.66699 177 29c16.667 10.667 29.667 32.334 39 65.001h106v51h-96v-5c-5.33301 -30.667 -9.33301 -46 -12 -46h-137v51h144c3.33301 0 5 1.33301 5 4c1.33301 41.333 2 64.666 2 69.999c0 89.333 -15.333 144 -46 164
c-24 14 -68 21 -132 21h-118z" />
    <glyph glyph-name="s" unicode="s" horiz-adv-x="964" 
d="M487 1429c158.667 0 264.997 -51.001 318.997 -153.001c37.333 -77.333 56 -153 56 -227h-2c-108.667 -9.33301 -183 -14 -223 -14c0 52.667 -16.333 97 -49 133c-30.667 17.333 -59 26 -85 26h-40c-68 0 -109.333 -26.333 -124 -79c-3.33301 -15.333 -5 -27.333 -5 -36
v-21c0 -74.667 39.333 -128.667 118 -162c6.66699 -6 61.334 -31 164.001 -75c54.667 -25.333 105.334 -56.666 152.001 -93.999v-2h-251v-28h331v-40h42v-434h-82v-223h-636v223h-150v150h85v52h-85v35h291v-237h298v357h-223v117h-277v28h134v2
c-117.333 78 -176 188.333 -176 331v19c0 119.333 36.667 210 110 272c66.667 53.333 169.334 80 308.001 80zM847.997 724.999h101v-28h-101v28zM-74.0029 424.999h96v-52h-96v52z" />
    <glyph glyph-name="t" unicode="t" horiz-adv-x="736" 
d="M-42 1433h840v-239h-278v-991h126v-29h-126v-109h-75v-38h53v-27h-255c-3.33301 0 -5 1.66699 -5 5v1189h-280v239zM421 203v-29h97v29h-97z" />
    <glyph glyph-name="u" unicode="u" horiz-adv-x="922" 
d="M0 1432h276v-757h-130v-40h130v-142c0 -129.333 23 -204.666 69 -225.999c23.333 -14.667 52.333 -22 87 -22h85v251h75v936h274v-880h-99v-64h99c-1.33301 -20.667 -2 -36.334 -2 -47.001v-281h-144v-160h-640v198h-59v592h-21v642zM276 675h156v-40h-156v40z" />
    <glyph glyph-name="v" unicode="v" horiz-adv-x="1011" 
d="M0 1434h304c2 -16.667 40.333 -203 115 -559h63v-55h-76v55h-107v-55h107v-257h34v-133h84v196h32v194h60v55h-47c74.667 356 113 542.333 115 559h304c-110 -478.667 -165 -722.667 -165 -732v-249h-84v-49h63v-147h-113v-257h-356c-3.33301 0 -13 36.667 -29 110h92v60
h-102c-4.66699 0 -14.334 38.667 -29.001 116c-7.33301 23.333 -95.666 406 -264.999 1148z" />
    <glyph glyph-name="w" unicode="w" horiz-adv-x="1367" 
d="M0 1431h270l80 -719h75c2 6 24 245.667 66 719h343c44 -488.667 66.667 -737.667 68 -747h113c50 429.333 78.333 678.333 85 747h270l-113 -759h-21v-141h-204v-35h162v-214h-155v-188h-43v-82h-174v463h-112v167c0 14 -15 148.667 -45 404h-5v-3l-37 -331h19v-512h-167
v-200h-214v200h-82v472h-66z" />
    <glyph glyph-name="x" unicode="x" horiz-adv-x="1010" 
d="M29 1432l288.998 0.000976562v-12c0 -90.667 16.667 -159.667 50 -207c86.667 -153.333 130 -236 130 -248h3c0 7.33301 51.333 108.666 154 303.999c12.667 49.333 19 93.333 19 132v31h272v-2c0 -134.667 -24 -235.667 -72 -303
c-10.667 -20.667 -87.667 -142 -231 -364c30 -48 45 -73.667 45 -77h-89v-41h114c8 -8 59.333 -90.667 154 -248v-180h48v-111h-106v-34h106v-55h-323v380h-36c-44.667 95.333 -67 146 -67 152h-3c-12.667 -33.333 -36 -84 -70 -152v-197h-98v-198
c-49.333 -1.33301 -85.666 -2 -108.999 -2h-185l-24 2v234h65v205h166v36h-77v139h104c4.66699 5.33301 33.334 50.333 86.001 135v5c-156 233.333 -241 361.666 -255 384.999c-40 62.667 -60 157.334 -60 284.001v7z" />
    <glyph glyph-name="y" unicode="y" horiz-adv-x="1023" 
d="M70 1430l281 -0.000976562c0 -138 24 -255 72 -351c51.333 -125.333 86.666 -224.666 105.999 -297.999v-3h2c24 88.667 73.667 225 149 409c19.333 87.333 29 168.333 29 243h264c-16 -144 -36 -250 -60 -318l-159 -360h-96v-247h-146v-48h146v-457h-274
c-2.66699 0 -4 1.66699 -4 5v223h-44v397h82v36h-89c-7.33301 8.66699 -62.666 132.667 -165.999 372c-43.333 96 -65 153.667 -65 173h118v51h-127c-12.667 105.333 -19 163 -19 173zM-101 1257h190l7 -51h-197v51zM658 504.999h118v-48h-118v48z" />
    <glyph glyph-name="z" unicode="z" horiz-adv-x="863" 
d="M0 1430h753.001v-181c0 -4 -38.333 -87.333 -115 -250h255v-63h-282c-2 0 -27.667 -51.333 -77 -154c-1.33301 -7.33301 -26 -61 -74 -161h41c-52 -112.667 -81 -173 -87 -181h-123v-55h99l-67 -144h262v-75h236v-161c0 -3.33301 -1.66699 -5 -5 -5h-397v24h-419v137h60
v154c11.333 29.333 59.666 131.333 144.999 306h-41v2l272 568h-436v239zM503.001 999l0.000976562 -63h101c3.33301 0 13.666 21 30.999 63h-132z" />
    <glyph glyph-name="braceleft" unicode="{" 
d="M240 698c114.667 3.33301 188.999 26.999 222.999 70.999s51 88.333 51 133v468c0 49.333 25.667 96.5 77 141.5s113 67.5 185 67.5h108v-50h-90c-40.667 0 -76.334 -11.167 -107.001 -33.5s-46.334 -52.833 -47.001 -91.5v-500
c0 -55.333 -20.167 -108.166 -60.5 -158.499s-87.833 -75.833 -142.5 -76.5v-2c54.667 -0.666992 102.334 -26 143.001 -76s61 -102.667 61 -158l-1 -500c0.666992 -38.667 16.334 -69.167 47.001 -91.5s66.334 -33.5 107.001 -33.5h90v-50h-108
c-72 0 -133.5 22.5 -184.5 67.5s-76.833 92.167 -77.5 141.5v468c0 44 -17 88 -51 132s-108.333 67.667 -223 71v60z" />
    <glyph glyph-name="bar" unicode="|" 
d="M427 1577h160v-1995h-160v1995z" />
    <glyph glyph-name="braceright" unicode="}" 
d="M774 638c-114.667 -3.33301 -189.001 -26.999 -223.001 -70.999s-51 -88 -51 -132v-468c-0.666992 -49.333 -26.5 -96.5 -77.5 -141.5s-112.5 -67.5 -184.5 -67.5h-108v50h90c40.667 0 76.334 11.167 107.001 33.5s46.334 52.833 47.001 91.5l-1 500
c0 55.333 20.333 108 61 158s88.667 75.333 144 76v2c-55.333 0.666992 -103.166 26.167 -143.499 76.5s-60.5 103.166 -60.5 158.499v500c-0.666992 38.667 -16.334 69.167 -47.001 91.5s-66.334 33.5 -107.001 33.5h-90v50h108c72 0 133.667 -22.5 185 -67.5
s77 -92.167 77 -141.5v-468c0 -44.667 17 -89 51 -133s108.333 -67.667 223 -71v-60z" />
    <glyph glyph-name="asciitilde" unicode="~" 
d="M923 878l-0.00195312 -156c-42 -48 -82.667 -80.5 -122 -97.5s-78 -25.5 -116 -25.5c-40 0 -99.167 16.167 -177.5 48.5s-137.166 48.5 -176.499 48.5c-34 0 -69.833 -9.33301 -107.5 -28s-80.834 -56 -129.501 -112v156c42.667 48.667 83.667 81.667 123 99
s77.333 26 114 26c42.667 0 103.167 -16.5 181.5 -49.5s135.833 -49.5 172.5 -49.5c34.667 0 70.834 9.33301 108.501 28s80.834 56 129.501 112z" />
    <glyph glyph-name="exclamdown" unicode="&#xa1;" horiz-adv-x="672" 
 />
    <glyph glyph-name="cent" unicode="&#xa2;" horiz-adv-x="1139" 
 />
    <glyph glyph-name="sterling" unicode="&#xa3;" 
d="M748 1347c-48 20.667 -101.333 30.999 -160 30.999h-2c-66.667 0 -130 -33.667 -190 -101c-56 -62 -84 -142.333 -84 -241c0 -10 0.333008 -20 1 -30c0 -90 17.667 -181 53 -273h360v-60h-334c9.33301 -20 19.666 -40 30.999 -60c23.333 -42 35 -88 35 -138
c0 -107.333 -54 -232.333 -162 -375h402c86.667 0 149.667 44 189 132l49 -1l-103 -231h-719l1 50c124.667 158.667 187 298 187 418c0 51.333 -11.333 99 -34 143c-11.333 21.333 -21.666 42 -30.999 62h-161v60h135c-38.667 95.333 -58 179.666 -58 252.999
c0 150.667 41.167 266.334 123.5 347.001s184.5 121 306.5 121h4c50 0 111.833 -4.66699 185.5 -14s110.5 -20.666 110.5 -33.999v-161h-58c-3.33301 40.667 -29 74.667 -77 102z" />
    <glyph glyph-name="currency" unicode="&#xa4;" 
d="M350 560c27.333 -26.667 60.333 -45.6641 99 -56.9971c19.333 -5.33301 38.666 -8 57.999 -8s38.666 2.66699 57.999 8c38.667 11.333 71.667 30.333 99 57c26.667 27.333 45.667 60.333 57 99c6 19.333 9 38.666 9 57.999s-3 38.666 -9 57.999
c-11.333 38.667 -30.333 71.667 -57 99c-27.333 26.667 -60.666 45.667 -99.999 57c-19.333 5.33301 -38.666 8 -57.999 8s-38.666 -3 -57.999 -9c-38.667 -11.333 -71.334 -30 -98.001 -56c-26 -26.667 -44.667 -59.334 -56 -98.001c-6.66699 -20 -10 -40 -10 -60
c0 -18.667 3 -37.334 9 -56.001c10.667 -39.333 29.667 -72.666 57 -99.999zM240 903.003l-118.001 118l80 81l118 -118c29.333 20 62.333 35.333 99 46c29.333 9.33301 59 14 89 14c27.333 0 55 -4 83 -12c38 -11.333 72 -27.333 102 -48l118 118l80 -81l-117 -117
c20.667 -30.667 36.667 -64.667 48 -102c8 -28 12 -56.333 12 -85c0 -28 -4 -56.333 -12 -85c-11.333 -37.333 -27.333 -71.333 -48 -102l117 -117l-80 -81l-118 118c-30 -21.333 -63.667 -37.333 -101 -48c-28 -8 -56.333 -12 -85 -12c-28 0 -56.333 4 -85 12
c-38 10.667 -72 26.667 -102 48l-118 -118l-80 81l118 117c-21.333 30.667 -37.333 65 -48 103c-8 28 -12 56 -12 84c0 29.333 4.33301 58.333 13 87c10.667 36.667 26.334 69.667 47.001 99z" />
    <glyph glyph-name="yen" unicode="&#xa5;" horiz-adv-x="1262" 
d="M547 225l-1.99707 241.993c0 12.667 -0.5 24.334 -1.5 35.001s-2.5 21.334 -4.5 32.001l-484 1c-9.33301 0 -16.333 2.16699 -21 6.5s-7 10.833 -7 19.5s2.16699 15 6.5 19s11.5 6 21.5 6h467l-121 172h-344c-11.333 0 -19.166 1.83301 -23.499 5.5
s-6.5 9.83398 -6.5 18.501c0 9.33301 2 15.833 6 19.5s11.333 5.5 22 5.5h307c-28.667 38 -64.667 89.667 -108 155c-87.333 131.333 -163 197 -227 197c-4.66699 0 -9 1.83301 -13 5.5s-6 7.5 -6 11.5c0 12.667 3.5 21.834 10.5 27.501s17.833 8.5 32.5 8.5
c18 0 59 -2.66699 123 -8s118.667 -8 164 -8h88c22 0 35.667 -2.16699 41 -6.5s8 -13.166 8 -26.499c0 -5.33301 -5 -10 -15 -14s-22.667 -6 -38 -6c-4 0 -10.167 0.666992 -18.5 2s-14.5 2 -18.5 2c-16 0 -28.5 -3.16699 -37.5 -9.5s-13.5 -14.833 -13.5 -25.5
c0 -12 5.5 -29.333 16.5 -52s26.5 -48.334 46.5 -77.001l158 -221c8.66699 -12.667 19.667 -30.334 33 -53.001c27.333 -46.667 51 -70 71 -70c6 0 11.5 1.66699 16.5 5s9.83301 8.33301 14.5 15l277 396c5.33301 8 9.66602 16.833 12.999 26.5s5 17.834 5 24.501
c0 12 -3.33301 21 -10 27s-19 10.667 -37 14c-10 1.33301 -23.667 2.66602 -41 3.99902c-31.333 2 -47 10.333 -47 25c0 10 2.66699 17.5 8 22.5s13.666 7.5 24.999 7.5c2 0 7 -0.333008 15 -1c37.333 -4.66699 73.333 -7 108 -7h139c20 0 41.667 0.333008 65 1
s35.666 1 36.999 1c7.33301 0 13.5 -1.5 18.5 -4.5s7.83301 -6.83301 8.5 -11.5c0 -18.667 -12.667 -30 -38 -34c-12 -2 -21 -3.66699 -27 -5c-42 -10 -91 -49 -147 -117l-12 -15l-169 -206h323c10 0 18 -2 24 -6s9 -9.66699 9 -17c0 -10 -2 -16.833 -6 -20.5
s-11.667 -5.5 -23 -5.5h-366c-30.667 -38 -62.834 -75.5 -96.501 -112.5s-51.167 -56.833 -52.5 -59.5h511c12 0 20.5 -1.83301 25.5 -5.5s7.5 -9.5 7.5 -17.5c0 -9.33301 -2.33301 -16.333 -7 -21s-12 -7 -22 -7h-530c0 -7.33301 -0.333008 -17.5 -1 -30.5
s-1 -22.833 -1 -29.5l2 -215c0 -76 1.83301 -126 5.5 -150s10.5 -38.667 20.5 -44c20 -11.333 55.833 -17.666 107.5 -18.999s77.5 -11.666 77.5 -30.999c0 -8 -3.33301 -14.667 -10 -20s-15 -8 -25 -8c-1.33301 0 -13.166 1.33301 -35.499 4s-43.833 4 -64.5 4
c-60.667 0 -130.167 -1.33301 -208.5 -4s-125.833 -4 -142.5 -4c-20.667 0 -34 1.33301 -40 4s-9 8 -9 16s2.66699 14.167 8 18.5s17.666 8.5 36.999 12.5c6 1.33301 14.333 3 25 5c49.333 10.667 80 21.334 92 32.001c11.333 8.66699 19.333 24.334 24 47.001
s7 56.667 7 102z" />
    <glyph glyph-name="brokenbar" unicode="&#xa6;" 
d="M427 371h160v-789h-160v789zM427 1578h160v-789h-160v789z" />
    <glyph glyph-name="section" unicode="&#xa7;" 
d="M545 321c37.333 10.667 69.668 28.3359 97.001 53.0029c48.667 43.333 73 98.666 73 165.999c0 3.33301 -0.333008 6.66602 -1 9.99902h-2c-0.666992 9.33301 -2 18.333 -4 27c-14.667 40.667 -52.334 83 -113.001 127c-39.333 19.333 -81.333 29 -126 29
c-52 0 -93.667 -14.833 -125 -44.5s-47 -68.834 -47 -117.501c0 -82 82.667 -165.333 248 -250zM466.002 -345.998c75.333 4 137.001 26.9971 185.001 68.9971c48 42.667 72 97.667 72 165c0 83.333 -105.333 175.333 -316 276c-82 42.667 -140.5 88.334 -175.5 137.001
s-52.5 107.667 -52.5 177c0 98.667 29.667 177.667 89 237c44.667 43.333 101.334 70.666 170.001 81.999l-40 19c-82 42.667 -140.5 88.334 -175.5 137.001s-52.5 107.667 -52.5 177c0 98.667 29.667 177.667 89 237c54.667 52.667 126.667 81.334 216 86.001
c5.33301 0.666992 11 1 17 1h3c44 0 98.333 -5.5 163 -16.5s97 -24.833 97 -41.5v-194h-51c-3.33301 54 -30 98 -80 132c-46.667 31.333 -96.334 48.333 -149.001 51h-15c-52 0 -93.667 -14.833 -125 -44.5s-47 -68.834 -47 -117.501c0 -88 95.667 -177.667 287 -269
c99.333 -44.667 167.5 -92.5 204.5 -143.5s55.5 -113.5 55.5 -187.5c0 -114 -33.667 -208 -101 -282c-31.333 -26 -64.333 -47.333 -99 -64c72 -37.333 123.333 -76.666 154 -117.999c36.667 -51.333 55 -113.666 55 -186.999c0 -114 -33.667 -208.333 -101 -283
c-82.667 -68 -175 -103 -277 -105v1c-4 -0.666992 -8.33301 -1 -13 -1h-3c-44 0 -98.333 5.5 -163 16.5s-97 24.833 -97 41.5v194h51c3.33301 -54 30 -98 80 -132c45.333 -30 93.666 -46.667 144.999 -50z" />
    <glyph glyph-name="dieresis" unicode="&#xa8;" horiz-adv-x="1024" 
d="M223 1289l70.998 71.998c8.66699 8 17 12 25 12c7.33301 0 16.333 -4.66699 27 -14l69 -73c6.66699 -9.33301 10 -17.666 10 -24.999c0 -8.66699 -4 -17.667 -12 -27l-69 -75c-11.333 -11.333 -19.666 -17 -24.999 -17c-9.33301 0 -17.666 4 -24.999 12l-76 86
c-6 8 -9 15.667 -9 23c0 8.66699 4.66699 17.334 14 26.001zM587.998 1289l70.998 72c8.66699 8 17 12 25 12c7.33301 0 16.333 -4.33301 27 -13l69 -74c6.66699 -9.33301 10 -17.666 10 -24.999c0 -8.66699 -4 -17.334 -12 -26.001l-69 -76
c-11.333 -11.333 -19.666 -17 -24.999 -17c-9.33301 0 -17.666 4 -24.999 12l-76 87c-6 7.33301 -9 14.666 -9 21.999c0 8.66699 4.66699 17.334 14 26.001z" />
    <glyph glyph-name="copyright" unicode="&#xa9;" horiz-adv-x="1674" 
d="M840 1456c96.667 0 190 -18.835 280 -56.502s169.667 -91.167 239 -160.5c68 -67.333 120.833 -146.666 158.5 -237.999s56.5 -185.666 56.5 -282.999c0 -98 -18.833 -192 -56.5 -282s-91.834 -170 -162.501 -240c-70 -70 -149.667 -123.167 -239 -159.5
s-183.666 -54.5 -282.999 -54.5c-97.333 0 -190 18.5 -278 55.5s-167.333 90.5 -238 160.5c-70.667 69.333 -124.5 148.5 -161.5 237.5s-55.5 183.167 -55.5 282.5c0 98.667 18.5 193 55.5 283s90.167 169.333 159.5 238c68 69.333 147.5 122.833 238.5 160.5
s186.5 56.5 286.5 56.5zM357 1197c-63.333 -64 -112.004 -137.168 -146.004 -219.501s-51 -168.833 -51 -259.5c0 -91.333 17 -177.666 51 -258.999s83.333 -154.333 148 -219c65.333 -64 138.333 -113 219 -147s166 -51 256 -51c91.333 0 177.833 16.833 259.5 50.5
s154.834 82.167 219.501 145.5c64.667 65.333 114.334 139.166 149.001 221.499s52 168.5 52 258.5c0 89.333 -17.333 175.833 -52 259.5s-83 156.834 -145 219.501c-64 64 -137.333 113.167 -220 147.5s-168.667 51.5 -258 51.5c-91.333 0 -178.666 -17.167 -261.999 -51.5
s-156.666 -83.5 -219.999 -147.5zM864.996 222.997c-94.667 0 -182.669 22.6689 -264.002 68.002s-143.333 107 -186 185s-64 159 -64 243s21.833 165.333 65.5 244s106.167 140.167 187.5 184.5s166 66.5 254 66.5c25.333 0 50.333 -2.16699 75 -6.5s50 -11.166 76 -20.499
c3.33301 -0.666992 6.33301 -1 9 -1c12.667 0 21.334 10 26.001 30h42l72 -198h-44c-34.667 62.667 -78.334 104 -131.001 124c-48 17.333 -97 26 -147 26h-15c-57.333 -5.33301 -112.833 -29 -166.5 -71s-94.167 -101 -121.5 -177c-22 -60 -33 -121.333 -33 -184
c0 -16.667 0.666992 -33.334 2 -50.001c7.33301 -80.667 30.5 -155.334 69.5 -224.001s88.833 -119.334 149.5 -152.001c48 -26.667 103.333 -40.667 166 -42c82.667 0 147.334 18.667 194.001 56s70 79.333 70 126h53v-100c0 -30.667 -32.167 -59.5 -96.5 -86.5
s-145.166 -40.5 -242.499 -40.5z" />
    <glyph glyph-name="ordfeminine" unicode="&#xaa;" horiz-adv-x="648" 
 />
    <glyph glyph-name="guillemotleft" unicode="&#xab;" horiz-adv-x="944" 
d="M174 479l342 303h14v-37l-205 -266l205 -266v-37h-14zM487 479l342 303h14v-37l-205 -266l205 -266v-37h-14z" />
    <glyph glyph-name="logicalnot" unicode="&#xac;" 
d="M87 767h840v-491l-1 -1h-98v392h-741v100z" />
    <glyph glyph-name="registered" unicode="&#xae;" horiz-adv-x="1674" 
d="M751 1099l0.000976562 -373.998l3 -8c15.333 -37.333 34 -64.333 56 -81c19.333 -14.667 38 -22 56 -22h6c20.667 2.66699 41.167 15.5 61.5 38.5s35.833 55.5 46.5 97.5c8.66699 33.333 13 67.666 13 102.999c0 8.66699 -0.333008 17.667 -1 27
c-2.66699 44.667 -12 86.167 -28 124.5s-34.833 63.666 -56.5 75.999s-42.834 18.5 -63.501 18.5h-93zM984.001 576.002l81.999 -116c66.667 -94 116.667 -141 150 -141h34v-50h-346v50h45c20 0 30 7.33301 30 22c0 19.333 -23 57.333 -69 114l-75 102c-28 0 -56 14 -84 42
v-159c0 -80.667 12 -121 36 -121h53v-50h-316v50h43c24.667 0 37 40.333 37 121v538c0 80.667 -12.333 121 -37 121h-43v70h356c42.667 -0.666992 84.334 -14.667 125.001 -42c40 -27.333 70.833 -65.333 92.5 -114s32.5 -99.334 32.5 -152.001
c0 -52 -10.667 -102.167 -32 -150.5s-59.333 -93.166 -114 -134.499zM840 1456c96.667 0 190 -18.835 280 -56.502s169.667 -91.167 239 -160.5c68 -67.333 120.833 -146.666 158.5 -237.999s56.5 -185.666 56.5 -282.999c0 -98 -18.833 -192 -56.5 -282
s-91.834 -170 -162.501 -240c-70 -70 -149.667 -123.167 -239 -159.5s-183.666 -54.5 -282.999 -54.5c-97.333 0 -190 18.5 -278 55.5s-167.333 90.5 -238 160.5c-70.667 69.333 -124.5 148.5 -161.5 237.5s-55.5 183.167 -55.5 282.5c0 98.667 18.5 193 55.5 283
s90.167 169.333 159.5 238c68 69.333 147.5 122.833 238.5 160.5s186.5 56.5 286.5 56.5zM357 1197c-63.333 -64 -112.004 -137.168 -146.004 -219.501s-51 -168.833 -51 -259.5c0 -91.333 17 -177.666 51 -258.999s83.333 -154.333 148 -219
c65.333 -64 138.333 -113 219 -147s166 -51 256 -51c91.333 0 177.833 16.833 259.5 50.5s154.834 82.167 219.501 145.5c64.667 65.333 114.334 139.166 149.001 221.499s52 168.5 52 258.5c0 89.333 -17.333 175.833 -52 259.5s-83 156.834 -145 219.501
c-64 64 -137.333 113.167 -220 147.5s-168.667 51.5 -258 51.5c-91.333 0 -178.666 -17.167 -261.999 -51.5s-156.666 -83.5 -219.999 -147.5z" />
    <glyph glyph-name="macron" unicode="&#xaf;" horiz-adv-x="670" 
 />
    <glyph glyph-name="degree" unicode="&#xb0;" horiz-adv-x="674" 
d="M339 1372c-57.333 0 -106.501 -20.333 -147.501 -61s-61.5 -90 -61.5 -148s20.333 -107 61 -147s90 -60 148 -60s107 20 147 60s60 89 60 147s-20.167 107.333 -60.5 148s-89.166 61 -146.499 61zM338.999 1442c76.667 0 142.002 -27.167 196.002 -81.5
s81 -119.833 81 -196.5c0 -76 -27.333 -141.333 -82 -196s-120.334 -82 -197.001 -82c-78 0 -143.667 27 -197 81s-80 119.667 -80 197s27.167 143 81.5 197s120.166 81 197.499 81z" />
    <glyph glyph-name="plusminus" unicode="&#xb1;" 
 />
    <glyph glyph-name="uni00B2" unicode="&#xb2;" 
 />
    <glyph glyph-name="uni00B3" unicode="&#xb3;" 
 />
    <glyph glyph-name="acute" unicode="&#xb4;" horiz-adv-x="1024" 
d="M607 1375c23.333 23.333 41.833 38.999 55.5 46.999s27.167 12 40.5 12c22 0 39.833 -6.66699 53.5 -20s20.5 -30.333 20.5 -51c0 -14.667 -5.16699 -28.667 -15.5 -42s-25.833 -26.666 -46.5 -39.999l-330 -203h-69z" />
    <glyph glyph-name="mu" unicode="&#xb5;" horiz-adv-x="1180" 
 />
    <glyph glyph-name="paragraph" unicode="&#xb6;" horiz-adv-x="1024" 
d="M929 1435l-0.000976562 -70h-127v-1365h-82v1365h-166v-1365h-84v738c-116 5.33301 -207.833 39.5 -275.5 102.5s-101.5 144.833 -101.5 245.5c0 104.667 35.833 189 107.5 253s166.834 96 285.501 96h443z" />
    <glyph glyph-name="periodcentered" unicode="&#xb7;" horiz-adv-x="508" 
d="M145 740l82.001 84c10 9.33301 19.667 14 29 14c8.66699 0 19 -5.33301 31 -16l80 -86c8 -10.667 12 -20.334 12 -29.001c0 -10 -4.66699 -20.333 -14 -31l-80 -88c-13.333 -13.333 -23 -20 -29 -20c-10.667 0 -20.334 4.66699 -29.001 14l-88 101
c-6.66699 8.66699 -10 17.334 -10 26.001c0 10 5.33301 20.333 16 31z" />
    <glyph glyph-name="periodcentered" unicode="&#x2219;" horiz-adv-x="508" 
d="M145 740l82.001 84c10 9.33301 19.667 14 29 14c8.66699 0 19 -5.33301 31 -16l80 -86c8 -10.667 12 -20.334 12 -29.001c0 -10 -4.66699 -20.333 -14 -31l-80 -88c-13.333 -13.333 -23 -20 -29 -20c-10.667 0 -20.334 4.66699 -29.001 14l-88 101
c-6.66699 8.66699 -10 17.334 -10 26.001c0 10 5.33301 20.333 16 31z" />
    <glyph glyph-name="cedilla" unicode="&#xb8;" horiz-adv-x="1024" 
d="M360 -290c56.667 -34.667 107.333 -52 152 -52c44 0 75.5 7.16699 94.5 21.5s28.5 36.5 28.5 66.5s-16.333 51.333 -49 64c-26.667 10.667 -60.667 16 -102 16c-10.667 0 -22 -0.666992 -34 -2l48 176h63l-37 -104c21.333 2.66699 42 4.33398 62 5.00098
c57.333 0 102 -13.5 134 -40.5s48 -64.833 48 -113.5c0 -50.667 -19.5 -90.834 -58.5 -120.501s-92.5 -44.5 -160.5 -44.5c-72.667 0 -135.667 10.667 -189 32v96z" />
    <glyph glyph-name="uni00B9" unicode="&#xb9;" 
 />
    <glyph glyph-name="ordmasculine" unicode="&#xba;" horiz-adv-x="718" 
 />
    <glyph glyph-name="guillemotright" unicode="&#xbb;" horiz-adv-x="944" 
d="M115 176h-14v37l205 266l-205 266v37h14l342 -303zM428 176h-14v37l205 266l-205 266v37h14l342 -303z" />
    <glyph glyph-name="onequarter" unicode="&#xbc;" horiz-adv-x="1708" 
 />
    <glyph glyph-name="onehalf" unicode="&#xbd;" horiz-adv-x="1964" 
 />
    <glyph glyph-name="threequarters" unicode="&#xbe;" horiz-adv-x="1708" 
 />
    <glyph glyph-name="questiondown" unicode="&#xbf;" horiz-adv-x="748" 
 />
    <glyph glyph-name="Agrave" unicode="&#xc0;" horiz-adv-x="1540" 
 />
    <glyph glyph-name="Aacute" unicode="&#xc1;" horiz-adv-x="1540" 
 />
    <glyph glyph-name="Acircumflex" unicode="&#xc2;" horiz-adv-x="1540" 
 />
    <glyph glyph-name="Atilde" unicode="&#xc3;" horiz-adv-x="1540" 
 />
    <glyph glyph-name="Adieresis" unicode="&#xc4;" horiz-adv-x="1540" 
 />
    <glyph glyph-name="Aring" unicode="&#xc5;" horiz-adv-x="1540" 
 />
    <glyph glyph-name="AE" unicode="&#xc6;" horiz-adv-x="2118" 
 />
    <glyph glyph-name="Ccedilla" unicode="&#xc7;" horiz-adv-x="1399" 
 />
    <glyph glyph-name="Egrave" unicode="&#xc8;" horiz-adv-x="1151" 
 />
    <glyph glyph-name="Eacute" unicode="&#xc9;" horiz-adv-x="1151" 
 />
    <glyph glyph-name="Ecircumflex" unicode="&#xca;" horiz-adv-x="1151" 
 />
    <glyph glyph-name="Edieresis" unicode="&#xcb;" horiz-adv-x="1151" 
 />
    <glyph glyph-name="Igrave" unicode="&#xcc;" horiz-adv-x="657" 
 />
    <glyph glyph-name="Iacute" unicode="&#xcd;" horiz-adv-x="657" 
 />
    <glyph glyph-name="Icircumflex" unicode="&#xce;" horiz-adv-x="657" 
 />
    <glyph glyph-name="Idieresis" unicode="&#xcf;" horiz-adv-x="657" 
 />
    <glyph glyph-name="Eth" unicode="&#xd0;" horiz-adv-x="1518" 
 />
    <glyph glyph-name="Ntilde" unicode="&#xd1;" horiz-adv-x="1554" 
 />
    <glyph glyph-name="Ograve" unicode="&#xd2;" horiz-adv-x="1614" 
 />
    <glyph glyph-name="Oacute" unicode="&#xd3;" horiz-adv-x="1614" 
 />
    <glyph glyph-name="Ocircumflex" unicode="&#xd4;" horiz-adv-x="1614" 
 />
    <glyph glyph-name="Otilde" unicode="&#xd5;" horiz-adv-x="1614" 
 />
    <glyph glyph-name="Odieresis" unicode="&#xd6;" horiz-adv-x="1614" 
 />
    <glyph glyph-name="multiply" unicode="&#xd7;" 
d="M507 618l-247 -247l-99 99l247 247l-247 248l99 98l247 -247l248 247l98 -99l-247 -247l247 -247l-99 -99z" />
    <glyph glyph-name="Oslash" unicode="&#xd8;" horiz-adv-x="1614" 
 />
    <glyph glyph-name="Ugrave" unicode="&#xd9;" horiz-adv-x="1501" 
 />
    <glyph glyph-name="Uacute" unicode="&#xda;" horiz-adv-x="1501" 
 />
    <glyph glyph-name="Ucircumflex" unicode="&#xdb;" horiz-adv-x="1501" 
 />
    <glyph glyph-name="Udieresis" unicode="&#xdc;" horiz-adv-x="1501" 
 />
    <glyph glyph-name="Yacute" unicode="&#xdd;" horiz-adv-x="1233" 
 />
    <glyph glyph-name="Thorn" unicode="&#xde;" horiz-adv-x="1120" 
 />
    <glyph glyph-name="germandbls" unicode="&#xdf;" horiz-adv-x="1251" 
 />
    <glyph glyph-name="agrave" unicode="&#xe0;" horiz-adv-x="922" 
 />
    <glyph glyph-name="aacute" unicode="&#xe1;" horiz-adv-x="922" 
 />
    <glyph glyph-name="acircumflex" unicode="&#xe2;" horiz-adv-x="922" 
 />
    <glyph glyph-name="atilde" unicode="&#xe3;" horiz-adv-x="922" 
 />
    <glyph glyph-name="adieresis" unicode="&#xe4;" horiz-adv-x="922" 
 />
    <glyph glyph-name="aring" unicode="&#xe5;" horiz-adv-x="922" 
 />
    <glyph glyph-name="ae" unicode="&#xe6;" horiz-adv-x="1454" 
 />
    <glyph glyph-name="ccedilla" unicode="&#xe7;" horiz-adv-x="905" 
 />
    <glyph glyph-name="egrave" unicode="&#xe8;" horiz-adv-x="909" 
 />
    <glyph glyph-name="eacute" unicode="&#xe9;" horiz-adv-x="909" 
 />
    <glyph glyph-name="ecircumflex" unicode="&#xea;" horiz-adv-x="909" 
 />
    <glyph glyph-name="edieresis" unicode="&#xeb;" horiz-adv-x="909" 
 />
    <glyph glyph-name="igrave" unicode="&#xec;" horiz-adv-x="514" 
 />
    <glyph glyph-name="iacute" unicode="&#xed;" horiz-adv-x="514" 
 />
    <glyph glyph-name="icircumflex" unicode="&#xee;" horiz-adv-x="514" 
 />
    <glyph glyph-name="idieresis" unicode="&#xef;" horiz-adv-x="514" 
 />
    <glyph glyph-name="eth" unicode="&#xf0;" horiz-adv-x="1139" 
 />
    <glyph glyph-name="ntilde" unicode="&#xf1;" horiz-adv-x="1108" 
 />
    <glyph glyph-name="ograve" unicode="&#xf2;" horiz-adv-x="1010" 
 />
    <glyph glyph-name="oacute" unicode="&#xf3;" horiz-adv-x="1010" 
 />
    <glyph glyph-name="ocircumflex" unicode="&#xf4;" horiz-adv-x="1010" 
 />
    <glyph glyph-name="otilde" unicode="&#xf5;" horiz-adv-x="1010" 
 />
    <glyph glyph-name="odieresis" unicode="&#xf6;" horiz-adv-x="1010" 
 />
    <glyph glyph-name="divide" unicode="&#xf7;" 
d="M87 647v140h839l1 -1v-139h-840zM398 408l82.001 84c10 9.33301 19.667 14 29 14c8.66699 0 19 -5.33301 31 -16l80 -86c8 -10.667 12 -20.334 12 -29.001c0 -10 -4.66699 -20.333 -14 -31l-80 -88c-13.333 -13.333 -23 -20 -29 -20
c-10.667 0 -20.334 4.66699 -29.001 14l-88 101c-6.66699 8.66699 -10 17.334 -10 26.001c0 10 5.33301 20.333 16 31zM398.001 1101l82.001 84c10 9.33301 19.667 14 29 14c8.66699 0 19 -5.33301 31 -16l80 -86c8 -10.667 12 -20.334 12 -29.001
c0 -10 -4.66699 -20.333 -14 -31l-80 -88c-13.333 -13.333 -23 -20 -29 -20c-10.667 0 -20.334 4.66699 -29.001 14l-88 101c-6.66699 8.66699 -10 17.334 -10 26.001c0 10 5.33301 20.333 16 31z" />
    <glyph glyph-name="oslash" unicode="&#xf8;" horiz-adv-x="1010" 
 />
    <glyph glyph-name="ugrave" unicode="&#xf9;" horiz-adv-x="1059" 
 />
    <glyph glyph-name="uacute" unicode="&#xfa;" horiz-adv-x="1059" 
 />
    <glyph glyph-name="ucircumflex" unicode="&#xfb;" horiz-adv-x="1059" 
 />
    <glyph glyph-name="udieresis" unicode="&#xfc;" horiz-adv-x="1059" 
 />
    <glyph glyph-name="yacute" unicode="&#xfd;" horiz-adv-x="868" 
 />
    <glyph glyph-name="thorn" unicode="&#xfe;" horiz-adv-x="1010" 
 />
    <glyph glyph-name="ydieresis" unicode="&#xff;" horiz-adv-x="868" 
 />
    <glyph glyph-name="dotlessi" unicode="&#x131;" horiz-adv-x="514" 
d="M328 223c0 -115.333 33.333 -173 100 -173h46v-50h-442v50h46c66.667 0 100 57.667 100 173v432c0 51.333 -37 77 -111 77h-48v44c148 46 235 106.667 261 182h48v-735z" />
    <glyph glyph-name="circumflex" unicode="&#x2c6;" horiz-adv-x="1024" 
d="M221 1079l232 355h118l232 -355h-58l-233 216l-233 -216h-58z" />
    <glyph glyph-name="caron" unicode="&#x2c7;" horiz-adv-x="1024" 
d="M221 1434h58l233 -214l233 214h58l-232 -356h-118z" />
    <glyph glyph-name="uni02C9" unicode="&#x2c9;" horiz-adv-x="1024" 
d="M254 1195v125h516v-125h-516z" />
    <glyph glyph-name="breve" unicode="&#x2d8;" horiz-adv-x="1024" 
d="M219 1349l50.998 0.00292969c11.333 -48.667 36.333 -84.334 75 -107.001s94.334 -34 167.001 -34s128 11.167 166 33.5s62.667 58.166 74 107.499h51c-13.333 -88.667 -44.666 -155.834 -93.999 -201.501s-115 -68.5 -197 -68.5c-81.333 0 -147 23 -197 69
s-82 113 -96 201z" />
    <glyph glyph-name="dotaccent" unicode="&#x2d9;" horiz-adv-x="1024" 
d="M422 1289l69 71.999c4 4 8.33301 7 13 9s9.33398 3 14.001 3c4 0 8.16699 -1 12.5 -3s8.5 -5 12.5 -9l71 -76c3.33301 -2.66699 5.66602 -6 6.99902 -10s2 -8.66699 2 -14c-0.666992 -6 -1.66699 -11 -3 -15s-4 -8 -8 -12l-71 -76c-8 -7.33301 -13.333 -11.833 -16 -13.5
s-5 -2.5 -7 -2.5c-6.66699 0 -12.167 0.833008 -16.5 2.5s-7.83301 4.5 -10.5 8.5l-75 87c-2.66699 2.66699 -4.66699 5.83398 -6 9.50098s-2 8.16699 -2 13.5c0 4 1 8.16699 3 12.5s5.66699 8.83301 11 13.5z" />
    <glyph glyph-name="ring" unicode="&#x2da;" horiz-adv-x="1024" 
d="M411 1257c0 -28 9.66699 -51.667 29 -71s43 -29 71 -29s51.667 9.66699 71 29s29 43 29 71c0 26.667 -9.83301 49.834 -29.5 69.501s-43.167 29.5 -70.5 29.5s-50.833 -9.83301 -70.5 -29.5s-29.5 -42.834 -29.5 -69.501zM335 1257c0 50 17 91.999 51 125.999
s75.667 51 125 51c50.667 0 93.167 -17.167 127.5 -51.5s51.5 -76.166 51.5 -125.499c0 -50 -17.167 -92.167 -51.5 -126.5s-76.833 -51.5 -127.5 -51.5c-49.333 0 -91 17.167 -125 51.5s-51 76.5 -51 126.5z" />
    <glyph glyph-name="ogonek" unicode="&#x2db;" horiz-adv-x="1024" 
d="M640 0c-47.333 -41.333 -84.168 -81.1699 -110.501 -119.503s-39.5 -75.833 -39.5 -112.5c0 -31.333 9 -56.333 27 -75s42.333 -28 73 -28c26.667 0 49.834 5.16699 69.501 15.5s36.167 26.5 49.5 48.5l28 -16c-24 -42 -54.167 -74.333 -90.5 -97
s-76.166 -34 -119.499 -34c-46.667 0 -84.667 11.833 -114 35.5s-44 53.834 -44 90.501c0 50.667 20.167 102.834 60.5 156.501s94.166 98.834 161.499 135.501h49z" />
    <glyph glyph-name="tilde" unicode="&#x2dc;" horiz-adv-x="1024" 
d="M808 1382c-13.333 -68.667 -36.1689 -120 -68.502 -154s-74.5 -51 -126.5 -51h-4c-33.333 0 -71 7.66699 -113 23c-44 16 -82 24 -114 24c-26 0 -46.167 -6.83301 -60.5 -20.5s-25.5 -37.5 -33.5 -71.5h-54c12.667 70.667 35.334 123.5 68.001 158.5
s75.667 52.5 129 52.5c30.667 -0.666992 68.334 -8.66699 113.001 -24c42.667 -15.333 80 -23 112 -23h4c24 0 43.333 6.66699 58 20s26.667 35.333 36 66h54z" />
    <glyph glyph-name="hungarumlaut" unicode="&#x2dd;" horiz-adv-x="1024" 
d="M217 1079l144 273.002c16 29.333 31.167 50.333 45.5 63s29.833 19 46.5 19c18.667 0 34.667 -6.66699 48 -20s20 -29 20 -47c0 -10.667 -3.5 -22.334 -10.5 -35.001s-17.167 -26.334 -30.5 -41.001l-205 -212h-58zM502 1079l144 273.002
c16 29.333 31.167 50.333 45.5 63s29.833 19 46.5 19c18.667 0 34.667 -6.66699 48 -20s20 -29 20 -47c0 -10.667 -3.5 -22.334 -10.5 -35.001s-17.167 -26.334 -30.5 -41.001l-205 -212h-58z" />
    <glyph glyph-name="endash" unicode="&#x2013;" horiz-adv-x="1108" 
d="M56 419v120h996v-120h-996z" />
    <glyph glyph-name="emdash" unicode="&#x2014;" horiz-adv-x="2048" 
d="M0 419v120h2048v-120h-2048z" />
    <glyph glyph-name="quoteleft" unicode="&#x2018;" horiz-adv-x="557" 
d="M319 1016c-29.333 0 -58.832 21.833 -88.499 65.5s-44.5 94.167 -44.5 151.5c0 72.667 23.667 148.167 71 226.5s93.666 117.5 138.999 117.5v-43c-48.667 -28.667 -77.667 -92 -87 -190c0 -79.333 43 -133 129 -161v-42z" />
    <glyph glyph-name="quoteright" unicode="&#x2019;" horiz-adv-x="557" 
d="M238 1577c29.333 0 58.832 -21.833 88.499 -65.5s44.5 -94.167 44.5 -151.5c0 -72.667 -23.667 -148.167 -71 -226.5s-93.666 -117.5 -138.999 -117.5v43c48.667 28.667 77.667 92 87 190c0 79.333 -43 133 -129 161v42z" />
    <glyph glyph-name="quotesinglbase" unicode="&#x201a;" horiz-adv-x="557" 
d="M238 281c29.333 0 58.832 -21.833 88.499 -65.5s44.5 -94.167 44.5 -151.5c0 -72.667 -23.667 -148.167 -71 -226.5s-93.666 -117.5 -138.999 -117.5v43c48.667 28.667 77.667 92 87 190c0 79.333 -43 133 -129 161v42z" />
    <glyph glyph-name="quotedblleft" unicode="&#x201c;" horiz-adv-x="910" 
d="M319 1016c-29.333 0 -58.832 21.833 -88.499 65.5s-44.5 94.167 -44.5 151.5c0 72.667 23.667 148.167 71 226.5s93.666 117.5 138.999 117.5v-43c-48.667 -28.667 -77.667 -92 -87 -190c0 -79.333 43 -133 129 -161v-42zM672.001 1016
c-29.333 0 -58.832 21.833 -88.499 65.5s-44.5 94.167 -44.5 151.5c0 72.667 23.667 148.167 71 226.5s93.666 117.5 138.999 117.5v-43c-48.667 -28.667 -77.667 -92 -87 -190c0 -79.333 43 -133 129 -161v-42z" />
    <glyph glyph-name="quotedblright" unicode="&#x201d;" horiz-adv-x="910" 
d="M238 1577c29.333 0 58.832 -21.833 88.499 -65.5s44.5 -94.167 44.5 -151.5c0 -72.667 -23.667 -148.167 -71 -226.5s-93.666 -117.5 -138.999 -117.5v43c48.667 28.667 77.667 92 87 190c0 79.333 -43 133 -129 161v42zM590.999 1577
c29.333 0 58.832 -21.833 88.499 -65.5s44.5 -94.167 44.5 -151.5c0 -72.667 -23.667 -148.167 -71 -226.5s-93.666 -117.5 -138.999 -117.5v43c48.667 28.667 77.667 92 87 190c0 79.333 -43 133 -129 161v42z" />
    <glyph glyph-name="quotedblbase" unicode="&#x201e;" horiz-adv-x="910" 
d="M238 281c29.333 0 58.832 -21.833 88.499 -65.5s44.5 -94.167 44.5 -151.5c0 -72.667 -23.667 -148.167 -71 -226.5s-93.666 -117.5 -138.999 -117.5v43c48.667 28.667 77.667 92 87 190c0 79.333 -43 133 -129 161v42zM590.999 281
c29.333 0 58.832 -21.833 88.499 -65.5s44.5 -94.167 44.5 -151.5c0 -72.667 -23.667 -148.167 -71 -226.5s-93.666 -117.5 -138.999 -117.5v43c48.667 28.667 77.667 92 87 190c0 79.333 -43 133 -129 161v42z" />
    <glyph glyph-name="dagger" unicode="&#x2020;" 
d="M486 1022c-5.33301 64.667 -23.332 123.999 -53.999 177.999c-38 67.333 -57 110.333 -57 129c0 32.667 12 58.834 36 78.501s56 29.5 96 29.5c38 0 69.5 -9.16699 94.5 -27.5s37.5 -42.166 37.5 -71.499c0 -21.333 -18.333 -67 -55 -137
c-30.667 -56.667 -49 -116.334 -55 -179.001c64 5.33301 123 23.333 177 54c67.333 38 110.333 57 129 57c32.667 0 59 -12 79 -36s30 -56 30 -96c0 -38 -9.16699 -69.5 -27.5 -94.5s-42.5 -37.5 -72.5 -37.5c-21.333 0 -66.666 18.333 -135.999 55
c-56.667 30.667 -116.334 49.667 -179.001 57c5.33301 -117.333 42 -209.666 110 -276.999c-70.667 -306.667 -108 -631.334 -112 -974.001h-38c-4 342.667 -42 667.334 -114 974.001c68 67.333 105 159.666 111 276.999c-64 -6.66699 -123.333 -25 -178 -55
c-67.333 -38 -110.333 -57 -129 -57c-32.667 0 -58.834 12 -78.501 36s-29.5 56 -29.5 96c0 38 9.16699 69.5 27.5 94.5s42.166 37.5 71.499 37.5c21.333 0 67 -18.667 137 -56c56.667 -30.667 116.334 -49 179.001 -55z" />
    <glyph glyph-name="daggerdbl" unicode="&#x2021;" 
d="M528 186c62.667 7.33301 122.334 26.3311 179.001 56.998c69.333 36.667 114.666 55 135.999 55c30 0 54.167 -12.5 72.5 -37.5s27.5 -56.5 27.5 -94.5c0 -40 -10 -72 -30 -96s-46.333 -36 -79 -36c-18.667 0 -61.667 19 -129 57c-54 30.667 -113 48.667 -177 54
c6 -62.667 24.333 -122.334 55 -179.001c36.667 -70 55 -115.667 55 -137c0 -29.333 -12.5 -53.166 -37.5 -71.499s-56.5 -27.5 -94.5 -27.5c-40 0 -72 9.83301 -96 29.5s-36 45.834 -36 78.501c0 18.667 19 61.667 57 129c30.667 54 48.667 113.333 54 178
c-62.667 -6 -122.334 -24.333 -179.001 -55c-70 -37.333 -115.667 -56 -137 -56c-29.333 0 -53.166 12.5 -71.499 37.5s-27.5 56.5 -27.5 94.5c0 40 9.83301 72 29.5 96s45.834 36 78.501 36c18.667 0 61.667 -19 129 -57c54.667 -30 114 -48.333 178 -55
c-6 150.667 -43 283.334 -111 398.001c68 114 105 246.333 111 397c-64 -6.66699 -123.333 -25 -178 -55c-67.333 -38 -110.333 -57 -129 -57c-32.667 0 -58.834 12 -78.501 36s-29.5 56 -29.5 96c0 38 9.16699 69.5 27.5 94.5s42.166 37.5 71.499 37.5
c21.333 0 67 -18.667 137 -56c56.667 -30.667 116.334 -49 179.001 -55c-5.33301 64.667 -23.333 124 -54 178c-38 67.333 -57 110.333 -57 129c0 32.667 12 58.834 36 78.501s56 29.5 96 29.5c38 0 69.5 -9.16699 94.5 -27.5s37.5 -42.166 37.5 -71.499
c0 -21.333 -18.333 -67 -55 -137c-30.667 -56.667 -49 -116.334 -55 -179.001c64 5.33301 123 23.333 177 54c67.333 38 110.333 57 129 57c32.667 0 59 -12 79 -36s30 -56 30 -96c0 -38 -9.16699 -69.5 -27.5 -94.5s-42.5 -37.5 -72.5 -37.5
c-21.333 0 -66.666 18.333 -135.999 55c-56.667 30.667 -116.334 49.667 -179.001 57c5.33301 -150.667 42 -283 110 -397c-68 -114.667 -104.667 -247.334 -110 -398.001z" />
    <glyph glyph-name="bullet" unicode="&#x2022;" horiz-adv-x="1024" 
d="M216 718c0 82 28.999 151.666 86.999 208.999s128 86 210 86c81.333 0 150.833 -28.833 208.5 -86.5s86.5 -127.167 86.5 -208.5s-29.167 -151.166 -87.5 -209.499s-128.166 -87.5 -209.499 -87.5c-82 0 -151.667 29 -209 87s-86 128 -86 210z" />
    <glyph glyph-name="guilsinglleft" unicode="&#x2039;" horiz-adv-x="631" 
d="M174 479l342 303h14v-37l-205 -266l205 -266v-37h-14z" />
    <glyph glyph-name="guilsinglright" unicode="&#x203a;" horiz-adv-x="631" 
d="M115 176h-14v37l205 266l-205 266v37h14l342 -303z" />
    <glyph glyph-name="fraction" unicode="&#x2044;" horiz-adv-x="342" 
d="M-342 -29l940 1461h84l-938 -1461h-86z" />
    <glyph glyph-name="fraction" unicode="&#x2215;" horiz-adv-x="342" 
d="M-342 -29l940 1461h84l-938 -1461h-86z" />
    <glyph glyph-name="franc" unicode="&#x20a3;" 
d="M247 357h-194.001v60h194v732c0 156.667 -34.333 235 -103 235h-96v50h915l103 -231h-49c-39.333 121.333 -102.666 182 -189.999 182l-316 -1c-68 0 -102 -78.333 -102 -235v-352h361c66.667 0 100 21 100 63v58h50v-342h-50v60c0 41.333 -33.333 62 -100 62h-361v-281
h194v-60h-194v-72c0 -156.667 34 -235 102 -235h97v-50h-560v50h96c68.667 0 103 78.333 103 235v72z" />
    <glyph glyph-name="lira" unicode="&#x20a4;" 
d="M748 1347c-48 20.667 -101.333 30.999 -160 30.999h-2c-66.667 0 -130 -33.667 -190 -101c-56 -62 -84 -142.333 -84 -241c0 -10 0.333008 -20 1 -30c0 -70.667 11 -141.667 33 -213h380v-60h-360c8 -20 16.667 -40 26 -60h352v-60h-321c23.333 -42 35 -88 35 -138
c0 -107.333 -54 -232.333 -162 -375h402c86.667 0 149.667 44 189 132l49 -1l-103 -231h-719l1 50c124.667 158.667 187 298 187 418c0 51.333 -11.333 99 -34 143l-2 2h-172v60h143l-26 60h-135v60h113c-24 71.333 -36 135.666 -36 192.999
c0 150.667 41.167 266.334 123.5 347.001s185.833 121 310.5 121c50 0 111.833 -4.66699 185.5 -14s110.5 -20.666 110.5 -33.999v-161h-58c-3.33301 40.667 -29 74.667 -77 102z" />
    <glyph glyph-name="peseta" unicode="&#x20a7;" horiz-adv-x="2028" 
d="M409 1384v-661.999c2 -6 4.33301 -11.667 7 -17c27.333 -68 63.333 -119 108 -153c38 -29.333 76.667 -44 116 -44c6.66699 0 13 0.333008 19 1c45.333 5.33301 87.666 30.333 126.999 75s68.333 103.667 87 177c14.667 58 22 117.667 22 179
c0 16 -0.333008 31.667 -1 47c-4.66699 77.333 -21.167 150.166 -49.5 218.499s-64.5 116.5 -108.5 144.5c-37.333 23.333 -74.666 35 -111.999 35c-6.66699 0 -13.667 -0.333008 -21 -1h-194zM1496 908.001h-178.999v-685c0 -54 11.333 -93.667 34 -119
c18.667 -20.667 45.667 -33 81 -37l-71 192l49 1c36.667 -86.667 74.667 -144.667 114 -174c38 -29.333 80.333 -44 127 -44h7c61.333 0 111.666 17.333 150.999 52c39.333 35.333 59 80.666 59 135.999c0 68 -86.333 143.333 -259 226c-67.333 34.667 -115.333 72 -144 112
s-43 88.333 -43 145c0 80.667 24.333 145.334 73 194.001zM1039 910.001c-4.66699 -67.333 -20.6621 -131.999 -47.9951 -193.999c-33.333 -76 -80.333 -135.167 -141 -177.5s-124 -63.5 -190 -63.5c-66.667 0 -130.334 21.333 -191.001 64c-22 14.667 -42 31.667 -60 51
v-305c0 -156.667 34 -235 102 -235h97v-50h-560v50h96c68.667 0 103 78.333 103 235v864c0 156.667 -34.333 235 -103 235h-96v50h618c61.333 -1.33301 121.666 -22 180.999 -62c60.667 -41.333 108.334 -100.333 143.001 -177c33.333 -75.333 50.333 -154.333 51 -237h10
c144 0 216 118.333 216 355h50v-355h259c28 12.667 64.667 19.334 110 20.001h2c36 0 80.5 -4.5 133.5 -13.5s79.5 -20.167 79.5 -33.5v-159h-42c-2.66699 44 -24.5 80 -65.5 108s-85.5 42 -133.5 42c-42.667 0 -76.834 -12.167 -102.501 -36.5s-38.5 -56.5 -38.5 -96.5
c0 -72 78.333 -145.333 235 -220c81.333 -36.667 137.166 -75.834 167.499 -117.501s45.5 -92.834 45.5 -153.501c0 -93.333 -27.667 -170.333 -83 -231c-68 -56 -144 -84.667 -228 -86c-38.667 0 -73.667 3.66699 -105 11c-18.667 4 -37.334 6 -56.001 6
c-12 0 -24 -1 -36 -3c-18.667 -3.33301 -38.334 -5 -59.001 -5c-82.667 0 -140.5 19 -173.5 57s-52.167 96.667 -57.5 176h-1v687h-129z" />
    <glyph glyph-name="Euro" unicode="&#x20ac;" 
d="M140 372c-41.333 90 -66.6641 183.667 -75.9971 281h-108l17 60h87v29c0 10.667 0.333008 21 1 31h-71l17 60h58c9.33301 96.667 34.666 190.334 75.999 281.001c54 118.667 129.333 210 226 274s196 96 298 96c28.667 0 57.667 -2.66699 87 -8
c26.667 -6.66699 54 -16.334 82 -29.001c5.33301 -4 10.666 -6 15.999 -6c13.333 0 24.666 15 33.999 45h41l84 -281l-40 -1c-32.667 89.333 -78.667 148.666 -138 177.999c-28.667 14.667 -55.667 25.334 -81 32.001v3c-33.333 10.667 -67 16 -101 16
c-11.333 0 -22.666 -0.666992 -33.999 -2c-80 -8 -155.333 -45.833 -226 -113.5s-123 -158.834 -157 -273.501c-21.333 -69.333 -34.333 -139.666 -39 -210.999h706l-17 -60h-692c0 -20 0.666992 -40 2 -60h674l-17 -60h-652c11.333 -105.333 39 -204.666 83 -297.999
c49.333 -104.667 113.666 -183.334 192.999 -236.001c68 -45.333 140 -68.333 216 -69c124 2 209.333 32.333 256 91c49.333 60.667 74 122.334 74 185.001h48v-143c0 -46.667 -37 -89 -111 -127c-70 -36 -159 -54.667 -267 -56c-120.667 0 -229.167 32.667 -325.5 98
s-170.833 156.666 -223.5 273.999z" />
    <glyph glyph-name="afii61352" unicode="&#x2116;" horiz-adv-x="2271" 
 />
    <glyph glyph-name="trademark" unicode="&#x2122;" horiz-adv-x="1497" 
 />
    <glyph glyph-name="partialdiff" unicode="&#x2202;" 
d="M232 537c0 -27.333 1.66504 -53.668 4.99805 -79.001c9.33301 -81.333 29.833 -158 61.5 -230s71.167 -127 118.5 -165c42.667 -35.333 85.334 -53 128.001 -53c4 0 8.33301 0.333008 13 1c46.667 3.33301 89.167 26.833 127.5 70.5s65.166 103.5 80.499 179.5
c10.667 48.667 16 98.334 16 149.001c0 28 -1.66699 56.333 -5 85c-9.33301 81.333 -30.166 158.5 -62.499 231.5s-72.166 128.167 -119.499 165.5c-43.333 33.333 -86 50 -128 50h-11c-45.333 -3.33301 -87.333 -26.5 -126 -69.5s-66 -102.5 -82 -178.5
c-10.667 -56 -16 -108.333 -16 -157zM936.998 476.998c0 -88 -18.835 -171.669 -56.502 -251.002s-90.667 -141 -159 -185s-139.833 -66 -214.5 -66s-146.167 22 -214.5 66s-121.333 105.667 -159 185s-56.5 163 -56.5 251c0 87.333 19.333 171 58 251
s92.334 141.667 161.001 185s139 65 211 65c72.667 0 143.334 -21.667 212.001 -65c19.333 -12 37.333 -25.667 54 -41c-56 156.667 -133.833 282.334 -233.5 377.001s-208.5 146.334 -326.5 155.001v55c204 0 375.667 -95 515 -285s209 -422.333 209 -697z" />
    <glyph glyph-name="Delta" unicode="&#x2206;" horiz-adv-x="1081" 
d="M514 1195l-406 -1072h801zM547 1434l526 -1434h-1067z" />
    <glyph glyph-name="product" unicode="&#x220f;" horiz-adv-x="1515" 
d="M511 1384c-68 0 -102 -78.333 -102 -235v-1281c0 -156.667 34 -235 102 -235h97v-51h-560v51h96c68.667 0 103 78.333 103 235v1281c0 156.667 -34.333 235 -103 235h-96v50h1419v-50h-97c-68 0 -102 -78.333 -102 -235v-1281c0 -156.667 34 -235 102 -235h97v-50h-560
v50h96c68.667 0 103 78.333 103 235v1281c0 156.667 -34.333 235 -103 235h-492z" />
    <glyph glyph-name="summation" unicode="&#x2211;" horiz-adv-x="1206" 
d="M1059 548l-788 -914h635c86.667 0 149.667 60.667 189 182h49l-103 -232h-921v50c41.333 0 76.666 17.667 105.999 53l663 781l-663 859c-29.333 38 -64.666 57 -105.999 57v50h921l103 -232h-49c-39.333 121.333 -102.333 182 -189 182h-485z" />
    <glyph glyph-name="minus" unicode="&#x2212;" 
d="M87 647v140h839l1 -1v-139h-840z" />
    <glyph glyph-name="radical" unicode="&#x221a;" 
d="M181 0l-164 359l74 35l85 -185l728 1470h150v-60h-72z" />
    <glyph glyph-name="infinity" unicode="&#x221e;" 
d="M439 755c-10 68.667 -34.666 113 -73.999 133c-30.667 14.667 -58.667 22 -84 22c-8 0 -15.667 -0.666992 -23 -2c-32.667 -6.66699 -63.5 -21.5 -92.5 -44.5s-50.833 -51.167 -65.5 -84.5c-13.333 -30.667 -20 -60.667 -20 -90v-8c1.33301 -32 10.5 -61.667 27.5 -89
s40.833 -46.666 71.5 -57.999c19.333 -7.33301 39.666 -11 60.999 -11c10.667 0 21.667 1 33 3c31.333 6.66699 61.5 21.167 90.5 43.5s54.167 84.166 75.5 185.499zM466.001 687c8 -64 39.333 -115 94 -153c46 -32 87 -48 123 -48c7.33301 0 14.333 0.666992 21 2
c41.333 8 80.5 25.333 117.5 52s65.167 60.334 84.5 101.001c17.333 36 26 72 26 108v11c-1.33301 40 -13.166 76.167 -35.499 108.5s-52.833 55.166 -91.5 68.499c-24.667 8.66699 -50 13 -76 13c-14.667 0 -29.334 -1.33301 -44.001 -4c-44.667 -6 -87 -26.667 -127 -62
s-70.667 -101 -92 -197zM450.001 827c6 23.333 13 46.335 21 69.002c22.667 58.667 54.334 104.334 95.001 137.001s83.334 49 128.001 49s87.334 -16 128.001 -48s72.334 -77 95.001 -135s34 -118.667 34 -182s-11.333 -124 -34 -182s-54.334 -103 -95.001 -135
s-83.334 -48 -128.001 -48s-87.334 16.333 -128.001 49s-72.334 78 -95.001 136c-8 23.333 -15 46.666 -21 69.999c-3.33301 -14 -7.33301 -27.667 -12 -41c-18 -48.667 -42.667 -86.334 -74 -113.001s-64.333 -40 -99 -40s-68 13.667 -100 41s-56.5 65.166 -73.5 113.499
s-25.5 98.166 -25.5 149.499c0 50.667 8.5 100.334 25.5 149.001s41.5 86.667 73.5 114s65.333 41 100 41s67.667 -13.333 99 -40s56 -64 74 -112c4.66699 -14 8.66699 -28 12 -42z" />
    <glyph glyph-name="integral" unicode="&#x222b;" horiz-adv-x="665" 
d="M-12 -281c-40 0 -59.9971 9.66699 -59.9971 29v159h36c0.666992 -28.667 12.167 -50.167 34.5 -64.5s43.5 -21.5 63.5 -21.5h1c54.667 0 93 54 115 162c21.333 108 34.666 213.333 39.999 316l70 734l8 62c18 158.667 63 301.834 135 429.501s150 191.5 234 191.5
c40 0 60 -9.66699 60 -29v-159h-36c-0.666992 28.667 -12.334 50.167 -35.001 64.5s-43.667 21.5 -63 21.5c-47.333 0 -86 -51.833 -116 -155.5s-46.333 -224.834 -49 -363.501l-73 -767c-13.333 -154 -56.833 -294 -130.5 -420s-151.834 -189 -234.501 -189z" />
    <glyph glyph-name="approxequal" unicode="&#x2248;" 
d="M923 1053l-0.00195312 -156c-42 -48 -82.667 -80.5 -122 -97.5s-78 -25.5 -116 -25.5c-40 0 -99.167 16.167 -177.5 48.5s-137.166 48.5 -176.499 48.5c-34 0 -69.833 -9.33301 -107.5 -28s-80.834 -56 -129.501 -112v156c42.667 48.667 83.667 81.667 123 99
s77.333 26 114 26c42.667 0 103.167 -16.5 181.5 -49.5s135.833 -49.5 172.5 -49.5c34.667 0 70.834 9.33301 108.501 28s80.834 56 129.501 112zM922.998 705l-0.00195312 -156c-42 -48 -82.667 -80.5 -122 -97.5s-78 -25.5 -116 -25.5c-40 0 -99.167 16.167 -177.5 48.5
s-137.166 48.5 -176.499 48.5c-34 0 -69.833 -9.33301 -107.5 -28s-80.834 -56 -129.501 -112v156c42.667 48.667 83.667 81.667 123 99s77.333 26 114 26c42.667 0 103.167 -16.5 181.5 -49.5s135.833 -49.5 172.5 -49.5c34.667 0 70.834 9.33301 108.501 28
s80.834 56 129.501 112z" />
    <glyph glyph-name="lessequal" unicode="&#x2264;" 
d="M927 1074l-625 -359l625 -355v-167l-840 481v83l840 484v-167zM87 1v140h839l1 -1v-139h-840z" />
    <glyph glyph-name="greaterequal" unicode="&#x2265;" 
d="M87 1241l840 -484v-83l-840 -481v167l625 355l-625 359v167zM87 2v140h839l1 -1v-139h-840z" />
    <glyph glyph-name="uniF001" unicode="&#xf001;" horiz-adv-x="1073" 
 />
    <glyph glyph-name="uniF001" unicode="&#xfb01;" horiz-adv-x="1073" 
 />
    <glyph glyph-name="uniF002" unicode="&#xf002;" horiz-adv-x="1081" 
 />
    <glyph glyph-name="uniF002" unicode="&#xfb02;" horiz-adv-x="1081" 
 />
    <glyph glyph-name=".null" horiz-adv-x="0" 
 />
    <glyph glyph-name="nonmarkingreturn" horiz-adv-x="508" 
 />
  </font>
</defs>
</svg>
